<svg width="220" height="220" viewBox="0 0 220 220" fill="none" xmlns="http://www.w3.org/2000/svg">
<path d="M80.6715 7.33279C80.6715 5.38802 79.8988 3.52289 78.5235 2.14773C77.1481 0.77256 75.2827 0 73.3377 0C71.3927 0 69.5273 0.77256 68.1519 2.14773C66.7766 3.52289 66.0039 5.38802 66.0039 7.33279V14.6656H36.6689C30.8337 14.6656 25.2376 16.9833 21.1116 21.1088C16.9855 25.2343 14.6675 30.8296 14.6675 36.664V80.6607C14.6675 86.4951 16.9855 92.0904 21.1116 96.2159C25.2376 100.341 30.8337 102.659 36.6689 102.659H74.6284C75.2543 100.977 76.0952 99.3887 77.1513 97.8928C79.6448 94.3731 83.165 91.7332 87.2719 90.252L94.3123 87.9935H36.6689C34.7238 87.9935 32.8584 87.221 31.4831 85.8458C30.1077 84.4706 29.3351 82.6055 29.3351 80.6607V36.664C29.3351 34.7192 30.1077 32.8541 31.4831 31.4789C32.8584 30.1037 34.7238 29.3312 36.6689 29.3312H110.007C111.952 29.3312 113.817 30.1037 115.192 31.4789C116.568 32.8541 117.34 34.7192 117.34 36.664V64.1913L119.291 58.2224C120.905 53.8227 123.545 50.303 127.065 47.8098C128.62 46.6952 130.267 45.83 132.008 45.214V36.664C132.008 30.8296 129.69 25.2343 125.564 21.1088C121.438 16.9833 115.842 14.6656 110.007 14.6656H80.6715V7.33279ZM22.0013 124.657H79.3954C81.6796 126.984 84.4852 128.734 87.5799 129.761L103.127 134.894C105.342 135.642 107.396 136.815 110.036 139.162L110.183 139.323H22.0013C20.0563 139.323 18.1909 140.096 16.8156 141.471C15.4402 142.846 14.6675 144.711 14.6675 146.656V151.789C14.6675 165.648 20.6519 174.887 30.5378 181.032C40.8638 187.456 55.81 190.653 73.3377 190.653C90.9828 190.653 105.929 187.441 116.211 181.032C120.347 178.466 123.794 175.342 126.405 171.558L127.212 172.218C129.265 173.685 131.465 174.711 133.812 175.298C132.116 178.946 131.618 183.038 132.389 186.986C129.815 189.437 126.994 191.615 123.97 193.483C110.417 201.945 92.3615 205.318 73.3377 205.318C54.4166 205.318 36.3608 201.916 22.7934 193.483C8.78586 184.786 0 170.927 0 151.789V146.656C0 140.822 2.31799 135.226 6.44404 131.101C10.5701 126.975 16.1662 124.657 22.0013 124.657ZM62.3371 58.6623C62.3371 61.5795 61.1781 64.3772 59.115 66.4399C57.052 68.5027 54.254 69.6615 51.3364 69.6615C48.4188 69.6615 45.6208 68.5027 43.5578 66.4399C41.4947 64.3772 40.3357 61.5795 40.3357 58.6623C40.3357 55.7452 41.4947 52.9475 43.5578 50.8847C45.6208 48.822 48.4188 47.6632 51.3364 47.6632C54.254 47.6632 57.052 48.822 59.115 50.8847C61.1781 52.9475 62.3371 55.7452 62.3371 58.6623ZM95.339 69.6615C98.2566 69.6615 101.055 68.5027 103.118 66.4399C105.181 64.3772 106.34 61.5795 106.34 58.6623C106.34 55.7452 105.181 52.9475 103.118 50.8847C101.055 48.822 98.2566 47.6632 95.339 47.6632C92.4215 47.6632 89.6234 48.822 87.5604 50.8847C85.4974 52.9475 84.3384 55.7452 84.3384 58.6623C84.3384 61.5795 85.4974 64.3772 87.5604 66.4399C89.6234 68.5027 92.4215 69.6615 95.339 69.6615ZM144.886 62.798L149.99 78.5049C151.573 83.2823 154.252 87.6232 157.812 91.1807C161.373 94.7381 165.716 97.4134 170.495 98.9927L186.219 104.096L186.527 104.184C187.739 104.611 188.788 105.403 189.53 106.451C190.273 107.499 190.671 108.752 190.671 110.036C190.671 111.32 190.273 112.573 189.53 113.621C188.788 114.669 187.739 115.461 186.527 115.887L170.818 120.991C166.036 122.568 161.69 125.243 158.127 128.8C154.564 132.358 151.883 136.7 150.298 141.479L145.194 157.171C144.767 158.383 143.975 159.432 142.927 160.174C141.879 160.916 140.626 161.315 139.342 161.315C138.057 161.315 136.804 160.916 135.756 160.174C134.708 159.432 133.916 158.383 133.489 157.171L128.385 141.479C126.551 135.923 123.24 130.97 118.807 127.151C115.601 124.368 111.878 122.245 107.85 120.903L92.1268 115.799C90.9152 115.373 89.8659 114.581 89.1236 113.533C88.3813 112.485 87.9826 111.232 87.9826 109.948C87.9826 108.664 88.3813 107.411 89.1236 106.363C89.8659 105.315 90.9152 104.523 92.1268 104.096L107.85 98.9927C112.573 97.3727 116.854 94.6792 120.359 91.1241C123.864 87.569 126.496 83.2493 128.048 78.5049L133.152 62.8127C133.575 61.5962 134.367 60.5416 135.417 59.7953C136.467 59.0491 137.723 58.6481 139.012 58.6481C140.3 58.6481 141.556 59.0491 142.606 59.7953C143.656 60.5416 144.448 61.5962 144.871 62.8127M216.816 179.125L205.595 175.488C202.182 174.354 199.08 172.441 196.534 169.901C193.988 167.36 192.069 164.263 190.927 160.852L187.29 149.633C186.986 148.767 186.421 148.016 185.672 147.485C184.923 146.954 184.028 146.669 183.11 146.669C182.192 146.669 181.296 146.954 180.547 147.485C179.798 148.016 179.233 148.767 178.929 149.633L175.262 160.852C174.146 164.236 172.265 167.317 169.764 169.855C167.264 172.394 164.211 174.321 160.844 175.488L149.624 179.125C148.978 179.355 148.394 179.732 147.918 180.225C147.442 180.718 147.086 181.314 146.879 181.967C146.671 182.621 146.618 183.313 146.723 183.99C146.827 184.668 147.087 185.311 147.482 185.872C148.01 186.605 148.758 187.192 149.624 187.485L160.844 191.137C164.264 192.277 167.37 194.199 169.916 196.75C172.462 199.301 174.378 202.41 175.512 205.832L179.149 217.036C179.453 217.902 180.018 218.653 180.767 219.184C181.516 219.715 182.412 220 183.33 220C184.248 220 185.143 219.715 185.892 219.184C186.641 218.653 187.206 217.902 187.51 217.036L191.162 205.832C192.3 202.42 194.216 199.32 196.76 196.777C199.303 194.234 202.403 192.318 205.815 191.181L217.036 187.544C217.902 187.24 218.653 186.675 219.184 185.926C219.715 185.177 220 184.282 220 183.364C220 182.446 219.715 181.551 219.184 180.802C218.653 180.053 217.902 179.488 217.036 179.184L216.816 179.125Z" fill="#212529"/>
</svg>
