<svg width="62" height="62" viewBox="0 0 62 62" fill="none" xmlns="http://www.w3.org/2000/svg">
<path d="M47.4688 0H14.5312C6.50586 0 0 6.50586 0 14.5312V47.4688C0 55.4941 6.50586 62 14.5312 62H47.4688C55.4941 62 62 55.4941 62 47.4688V14.5312C62 6.50586 55.4941 0 47.4688 0Z" fill="url(#paint0_radial_19_283)"/>
<path d="M47.4688 0H14.5312C6.50586 0 0 6.50586 0 14.5312V47.4688C0 55.4941 6.50586 62 14.5312 62H47.4688C55.4941 62 62 55.4941 62 47.4688V14.5312C62 6.50586 55.4941 0 47.4688 0Z" fill="url(#paint1_radial_19_283)"/>
<path d="M31.0022 6.78125C24.4249 6.78125 23.5992 6.81007 21.0161 6.92753C18.4377 7.04572 16.6778 7.4538 15.1379 8.05273C13.5448 8.67128 12.1937 9.49884 10.8476 10.8454C9.50029 12.1917 8.67273 13.5429 8.05225 15.1353C7.45163 16.6756 7.04305 18.4363 6.92705 21.0134C6.81152 23.5968 6.78125 24.4227 6.78125 31.0002C6.78125 37.5778 6.81031 38.4008 6.92753 40.9839C7.0462 43.5623 7.45429 45.3222 8.05273 46.8621C8.67177 48.4552 9.49932 49.8063 10.8459 51.1524C12.1917 52.4997 13.5429 53.3292 15.1348 53.9478C16.6758 54.5467 18.436 54.9548 21.0139 55.073C23.5973 55.1904 24.4222 55.2192 30.9993 55.2192C37.5773 55.2192 38.4003 55.1904 40.9835 55.073C43.5618 54.9548 45.3237 54.5467 46.8647 53.9478C48.4571 53.3292 49.8063 52.4997 51.1519 51.1524C52.4992 49.8063 53.3265 48.4552 53.9473 46.8628C54.5426 45.3222 54.9514 43.5618 55.0725 40.9844C55.1885 38.4012 55.2188 37.5778 55.2188 31.0002C55.2188 24.4227 55.1885 23.5973 55.0725 21.0139C54.9514 18.4356 54.5426 16.6758 53.9473 15.136C53.3265 13.5429 52.4992 12.1917 51.1519 10.8454C49.8049 9.49835 48.4576 8.6708 46.8633 8.05298C45.3193 7.4538 43.5584 7.04548 40.9801 6.92753C38.3966 6.81007 37.5742 6.78125 30.9947 6.78125H31.0022ZM28.8295 11.1457C29.4745 11.1447 30.194 11.1457 31.0022 11.1457C37.4688 11.1457 38.2351 11.169 40.7887 11.285C43.1501 11.393 44.4317 11.7875 45.2854 12.1191C46.4157 12.5579 47.2215 13.0827 48.0686 13.9306C48.9163 14.7783 49.4409 15.5855 49.8809 16.7158C50.2125 17.5683 50.6075 18.8499 50.715 21.2113C50.831 23.7644 50.8562 24.5312 50.8562 30.9947C50.8562 37.4582 50.831 38.2252 50.715 40.7781C50.607 43.1394 50.2125 44.4211 49.8809 45.2738C49.4421 46.4041 48.9163 47.2089 48.0686 48.0561C47.221 48.9037 46.4162 49.4283 45.2854 49.8674C44.4327 50.2004 43.1501 50.5939 40.7887 50.702C38.2356 50.818 37.4688 50.8431 31.0022 50.8431C24.5353 50.8431 23.7688 50.818 21.2159 50.702C18.8545 50.593 17.5729 50.1984 16.7184 49.8669C15.5884 49.4278 14.7809 48.9032 13.9333 48.0556C13.0856 47.2079 12.5611 46.4026 12.121 45.2719C11.7894 44.4191 11.3944 43.1375 11.2869 40.7761C11.1709 38.223 11.1476 37.4562 11.1476 30.9886C11.1476 24.521 11.1709 23.7584 11.2869 21.2052C11.3949 18.8439 11.7894 17.5622 12.121 16.7085C12.5601 15.5782 13.0856 14.771 13.9335 13.9234C14.7814 13.0757 15.5884 12.5509 16.7187 12.1111C17.5724 11.7781 18.8545 11.3845 21.2159 11.276C23.45 11.175 24.3159 11.1447 28.8295 11.1397V11.1457ZM43.9301 15.167C42.3257 15.167 41.0239 16.4675 41.0239 18.0723C41.0239 19.6768 42.3257 20.9785 43.9301 20.9785C45.5346 20.9785 46.8364 19.6768 46.8364 18.0723C46.8364 16.4678 45.5346 15.166 43.9301 15.166V15.167ZM31.0022 18.5627C24.1337 18.5627 18.5649 24.1316 18.5649 31.0002C18.5649 37.8689 24.1337 43.4351 31.0022 43.4351C37.8709 43.4351 43.4378 37.8689 43.4378 31.0002C43.4378 24.1318 37.8704 18.5627 31.0017 18.5627H31.0022ZM31.0022 22.9272C35.4606 22.9272 39.0753 26.5413 39.0753 31.0002C39.0753 35.4587 35.4606 39.0733 31.0022 39.0733C26.5438 39.0733 22.9293 35.4587 22.9293 31.0002C22.9293 26.5413 26.5435 22.9272 31.0022 22.9272Z" fill="white"/>
<defs>
<radialGradient id="paint0_radial_19_283" cx="0" cy="0" r="1" gradientUnits="userSpaceOnUse" gradientTransform="translate(16.4687 66.7752) rotate(-90) scale(61.4466 57.1502)">
<stop stop-color="#FFDD55"/>
<stop offset="0.1" stop-color="#FFDD55"/>
<stop offset="0.5" stop-color="#FF543E"/>
<stop offset="1" stop-color="#C837AB"/>
</radialGradient>
<radialGradient id="paint1_radial_19_283" cx="0" cy="0" r="1" gradientUnits="userSpaceOnUse" gradientTransform="translate(-10.3852 4.46618) rotate(78.681) scale(27.467 113.22)">
<stop stop-color="#3771C8"/>
<stop offset="0.128" stop-color="#3771C8"/>
<stop offset="1" stop-color="#6600FF" stop-opacity="0"/>
</radialGradient>
</defs>
</svg>
