<svg width="930" height="592" viewBox="0 0 930 592" fill="none" xmlns="http://www.w3.org/2000/svg">
<g filter="url(#filter0_dddddd_397_2)">
<mask id="path-1-inside-1_397_2" fill="white">
<path d="M448.045 69.432C448.045 69.432 498.337 31.2609 528.513 31.2607C558.688 31.2606 642.767 31.5186 642.767 31.5186V50.604C642.767 50.604 554.046 48.2828 528.513 50.604C502.979 52.9252 461.198 84.9066 461.198 84.9066L448.045 69.432Z"/>
</mask>
<path d="M448.045 69.432L-843.044 -1631.65L-2640.83 -267.153L-1179.11 1452.52L448.045 69.432ZM642.767 31.5186H2778.32V-2097.49L649.32 -2104.02L642.767 31.5186ZM642.767 50.604L586.914 2185.42L2778.32 2242.76V50.604H642.767ZM461.198 84.9066L-1165.96 1467.99L148.088 3013.93L1759.23 1780.69L461.198 84.9066ZM642.767 31.5186H-1492.78V50.604H642.767H2778.32V31.5186H642.767ZM461.198 84.9066L2088.36 -1298.18L2075.2 -1313.65L448.045 69.432L-1179.11 1452.52L-1165.96 1467.99L461.198 84.9066ZM448.045 69.432C1739.13 1770.51 1738.89 1770.69 1738.65 1770.87C1738.57 1770.93 1738.33 1771.12 1738.17 1771.24C1737.85 1771.48 1737.53 1771.72 1737.21 1771.97C1736.57 1772.45 1735.92 1772.94 1735.28 1773.43C1733.99 1774.4 1732.69 1775.38 1731.39 1776.36C1728.78 1778.32 1726.14 1780.29 1723.47 1782.28C1718.14 1786.25 1712.62 1790.31 1706.92 1794.46C1695.64 1802.67 1683.04 1811.66 1669.19 1821.21C1643.62 1838.85 1604.24 1865.08 1553.69 1894.59C1508.9 1920.74 1418.62 1971.18 1295.42 2020.4C1204.76 2056.61 918.595 2166.81 528.524 2166.81L528.513 31.2607L528.501 -2104.29C123.342 -2104.29 -180.427 -1989.32 -289.003 -1945.95C-430.121 -1889.58 -538.625 -1829.59 -599.768 -1793.89C-666.659 -1754.84 -720.499 -1719.07 -756.44 -1694.27C-775.473 -1681.14 -792.242 -1669.18 -806.392 -1658.88C-813.526 -1653.69 -820.153 -1648.8 -826.236 -1644.28C-829.282 -1642.01 -832.207 -1639.82 -835.006 -1637.72C-836.406 -1636.66 -837.775 -1635.63 -839.115 -1634.62C-839.785 -1634.11 -840.447 -1633.61 -841.102 -1633.12C-841.429 -1632.87 -841.755 -1632.62 -842.078 -1632.38C-842.24 -1632.26 -842.482 -1632.07 -842.562 -1632.01C-842.803 -1631.83 -843.044 -1631.65 448.045 69.432ZM528.513 31.2607L528.524 2166.81C540.305 2166.81 565.957 2166.87 591.401 2166.93C603.53 2166.96 614.764 2167 622.975 2167.02C627.075 2167.03 630.408 2167.04 632.706 2167.05C633.854 2167.05 634.743 2167.05 635.339 2167.06C635.637 2167.06 635.862 2167.06 636.009 2167.06C636.082 2167.06 636.137 2167.06 636.171 2167.06C636.188 2167.06 636.2 2167.06 636.207 2167.06C636.211 2167.06 636.213 2167.06 636.214 2167.06C636.215 2167.06 636.214 2167.06 636.215 2167.06C636.214 2167.06 636.213 2167.06 642.767 31.5186C649.32 -2104.02 649.318 -2104.02 649.317 -2104.02C649.316 -2104.02 649.313 -2104.02 649.311 -2104.02C649.307 -2104.02 649.302 -2104.02 649.295 -2104.02C649.282 -2104.02 649.264 -2104.02 649.24 -2104.02C649.193 -2104.02 649.126 -2104.02 649.04 -2104.02C648.867 -2104.02 648.616 -2104.02 648.291 -2104.02C647.64 -2104.03 646.693 -2104.03 645.484 -2104.03C643.066 -2104.04 639.594 -2104.05 635.341 -2104.06C626.844 -2104.09 615.173 -2104.12 602.51 -2104.15C578.37 -2104.22 546.896 -2104.29 528.501 -2104.29L528.513 31.2607ZM642.767 50.604C698.619 -2084.22 698.584 -2084.22 698.548 -2084.22C698.536 -2084.22 698.499 -2084.22 698.474 -2084.22C698.425 -2084.22 698.373 -2084.22 698.321 -2084.22C698.215 -2084.23 698.103 -2084.23 697.986 -2084.23C697.751 -2084.24 697.492 -2084.24 697.21 -2084.25C696.646 -2084.27 695.989 -2084.28 695.244 -2084.3C693.754 -2084.34 691.901 -2084.38 689.726 -2084.44C685.397 -2084.54 679.68 -2084.67 672.924 -2084.81C659.81 -2085.08 640.924 -2085.43 619.635 -2085.68C599.823 -2085.9 570.143 -2086.13 537.625 -2085.84C527.531 -2085.74 438.077 -2085.53 335.169 -2076.18L528.513 50.604L721.856 2177.38C664.655 2182.58 621.481 2183.99 610.303 2184.35C593.157 2184.91 581.006 2185.05 576.648 2185.09C567.947 2185.17 565.234 2185.08 570.794 2185.14C574.877 2185.19 579.767 2185.28 584.086 2185.37C586.046 2185.41 587.46 2185.44 588.083 2185.45C588.384 2185.46 588.462 2185.46 588.284 2185.46C588.195 2185.46 588.039 2185.45 587.812 2185.45C587.699 2185.44 587.568 2185.44 587.418 2185.44C587.344 2185.43 587.264 2185.43 587.18 2185.43C587.138 2185.43 587.095 2185.43 587.05 2185.43C587.028 2185.43 586.994 2185.43 586.983 2185.43C586.949 2185.42 586.914 2185.42 642.767 50.604ZM528.513 50.604L335.169 -2076.18C-10.399 -2044.76 -265.428 -1936.48 -357.491 -1895.71C-477.518 -1842.55 -570.295 -1788.85 -623.6 -1756.47C-681.597 -1721.23 -728.493 -1689.36 -760.157 -1667.09C-776.88 -1655.34 -791.662 -1644.63 -804.199 -1635.39C-810.517 -1630.73 -816.401 -1626.34 -821.818 -1622.27C-824.531 -1620.23 -827.139 -1618.26 -829.64 -1616.36C-830.89 -1615.41 -832.115 -1614.48 -833.314 -1613.57C-833.913 -1613.11 -834.506 -1612.66 -835.093 -1612.21C-835.386 -1611.99 -835.678 -1611.76 -835.968 -1611.54C-836.113 -1611.43 -836.33 -1611.26 -836.402 -1611.21C-836.618 -1611.04 -836.834 -1610.88 461.198 84.9066C1759.23 1780.69 1759.01 1780.86 1758.8 1781.02C1758.73 1781.08 1758.51 1781.24 1758.37 1781.35C1758.08 1781.57 1757.79 1781.79 1757.5 1782.01C1756.93 1782.45 1756.35 1782.89 1755.77 1783.33C1754.61 1784.22 1753.45 1785.1 1752.28 1785.99C1749.94 1787.77 1747.57 1789.56 1745.17 1791.36C1740.37 1794.97 1735.41 1798.66 1730.29 1802.44C1720.13 1809.93 1708.81 1818.12 1696.41 1826.84C1673.38 1843.03 1638.52 1866.77 1594.16 1893.72C1554.49 1917.82 1476.95 1963.09 1371.94 2009.59C1294.89 2043.71 1054.66 2147.13 721.856 2177.38L528.513 50.604Z" fill="url(#paint0_linear_397_2)" mask="url(#path-1-inside-1_397_2)"/>
</g>
<g filter="url(#filter1_dddddd_397_2)">
<mask id="path-3-inside-2_397_2" fill="white">
<path d="M475.38 111.209C475.38 111.209 502.203 78.4549 532.378 78.4547C562.554 78.4546 643.021 77.1651 643.021 77.1651V96.2505C643.021 96.2505 557.911 97.7979 532.378 100.119C506.845 102.44 483.375 133.647 483.375 133.647L475.38 111.209Z"/>
</mask>
<path d="M475.38 111.209L64.8539 -224.971L-125.062 6.94434L-24.4493 289.309L475.38 111.209ZM643.021 77.1651H1173.63V-462.018L634.52 -453.379L643.021 77.1651ZM643.021 96.2505L652.667 626.775L1173.63 617.303V96.2505H643.021ZM483.375 133.647L-16.4541 311.748L314.607 1240.85L907.444 452.575L483.375 133.647ZM643.021 77.1651H112.409V96.2505H643.021H1173.63V77.1651H643.021ZM483.375 133.647L983.205 -44.4527L975.21 -66.8909L475.38 111.209L-24.4493 289.309L-16.4541 311.748L483.375 133.647ZM475.38 111.209C885.906 447.39 885.816 447.5 885.725 447.611C885.695 447.647 885.604 447.758 885.544 447.832C885.423 447.979 885.303 448.126 885.182 448.273C884.94 448.567 884.698 448.86 884.456 449.153C883.972 449.739 883.486 450.324 883 450.908C882.027 452.074 881.048 453.238 880.061 454.4C878.09 456.719 876.072 459.051 874 461.392C869.896 466.031 865.389 470.931 860.447 476.013C851.168 485.554 837.518 498.676 819.306 512.909C802.004 526.431 772.163 547.607 730.246 566.654C688.613 585.571 620.273 609.066 532.381 609.067L532.378 78.4547L532.375 -452.157C337.794 -452.156 206.108 -354.731 165.821 -323.245C137.131 -300.823 114.889 -279.513 99.6388 -263.83C91.7106 -255.677 84.8724 -248.219 79.1828 -241.788C76.3192 -238.551 73.6948 -235.516 71.3167 -232.717C70.126 -231.316 68.9922 -229.968 67.9161 -228.677C67.3779 -228.031 66.8537 -227.4 66.3434 -226.782C66.0883 -226.473 65.8365 -226.168 65.5883 -225.866C65.4642 -225.715 65.3409 -225.565 65.2185 -225.416C65.1574 -225.342 65.0661 -225.23 65.0356 -225.193C64.9446 -225.082 64.8539 -224.971 475.38 111.209ZM532.378 78.4547L532.381 609.067C551.691 609.067 583.028 608.686 606.176 608.374C618.477 608.208 629.771 608.042 637.979 607.918C642.09 607.856 645.444 607.805 647.785 607.768C648.956 607.75 649.874 607.735 650.507 607.725C650.824 607.72 651.07 607.716 651.24 607.714C651.326 607.712 651.392 607.711 651.439 607.71C651.463 607.71 651.482 607.71 651.496 607.709C651.503 607.709 651.509 607.709 651.513 607.709C651.515 607.709 651.518 607.709 651.519 607.709C651.521 607.709 651.523 607.709 643.021 77.1651C634.52 -453.379 634.521 -453.379 634.522 -453.379C634.522 -453.379 634.523 -453.379 634.522 -453.379C634.522 -453.379 634.52 -453.379 634.518 -453.379C634.512 -453.379 634.502 -453.379 634.487 -453.378C634.456 -453.378 634.407 -453.377 634.339 -453.376C634.203 -453.374 633.994 -453.37 633.714 -453.366C633.154 -453.357 632.314 -453.344 631.225 -453.327C629.047 -453.293 625.879 -453.244 621.975 -453.185C614.152 -453.067 603.443 -452.91 591.856 -452.754C567.226 -452.422 543.241 -452.157 532.375 -452.157L532.378 78.4547ZM643.021 96.2505C633.376 -434.274 633.37 -434.274 633.363 -434.274C633.361 -434.274 633.354 -434.273 633.349 -434.273C633.339 -434.273 633.327 -434.273 633.315 -434.273C633.289 -434.272 633.258 -434.272 633.222 -434.271C633.15 -434.27 633.058 -434.268 632.945 -434.266C632.72 -434.262 632.414 -434.256 632.032 -434.249C631.268 -434.234 630.199 -434.214 628.859 -434.188C626.185 -434.135 622.415 -434.058 617.842 -433.959C608.757 -433.763 596.204 -433.471 582.599 -433.095C563.845 -432.576 517.395 -431.319 484.339 -428.314L532.378 100.119L580.418 628.552C572.894 629.236 581.766 628.559 611.95 627.723C622.814 627.423 633.135 627.182 640.806 627.016C644.611 626.934 647.69 626.872 649.77 626.831C650.808 626.81 651.592 626.795 652.087 626.786C652.335 626.781 652.51 626.778 652.608 626.776C652.657 626.775 652.687 626.775 652.697 626.774C652.702 626.774 652.702 626.774 652.697 626.774C652.695 626.774 652.691 626.774 652.686 626.775C652.684 626.775 652.679 626.775 652.678 626.775C652.673 626.775 652.667 626.775 643.021 96.2505ZM532.378 100.119L484.339 -428.314C294.352 -411.042 173.614 -303.693 144.822 -277.975C120.372 -256.135 101.471 -235.896 88.6198 -221.251C81.9196 -213.616 76.1455 -206.679 71.3524 -200.734C68.9394 -197.741 66.7301 -194.944 64.7309 -192.372C63.7299 -191.085 62.7774 -189.848 61.8743 -188.667C61.4226 -188.076 60.9827 -187.498 60.5549 -186.933C60.3409 -186.651 60.13 -186.372 59.9219 -186.097C59.8179 -185.959 59.7146 -185.822 59.6121 -185.686C59.5609 -185.618 59.4843 -185.516 59.4588 -185.483C59.3826 -185.381 59.3066 -185.28 483.375 133.647C907.444 452.575 907.368 452.676 907.292 452.777C907.267 452.81 907.191 452.911 907.141 452.978C907.04 453.112 906.938 453.246 906.837 453.38C906.635 453.648 906.433 453.916 906.23 454.183C905.825 454.717 905.419 455.25 905.013 455.782C904.2 456.846 903.382 457.906 902.559 458.965C900.916 461.078 899.236 463.203 897.515 465.338C894.105 469.568 890.364 474.048 886.263 478.721C878.61 487.442 867.173 499.734 851.782 513.482C837.396 526.332 811.31 547.903 773.767 568.986C737.699 589.241 671.151 620.304 580.418 628.552L532.378 100.119Z" fill="url(#paint1_linear_397_2)" mask="url(#path-3-inside-2_397_2)"/>
</g>
<g filter="url(#filter2_dddddd_397_2)">
<path d="M591.445 167.434H674.75C681.198 168.895 694.093 174.913 694.093 187.293C694.093 199.672 694.093 265.181 694.093 296.388L611.046 379.177" stroke="url(#paint2_linear_397_2)" stroke-width="19.6523"/>
</g>
<g filter="url(#filter3_dddddd_397_2)">
<path d="M586.53 359.063V331.466L639.144 274.21M639.144 274.21L641.465 212.054M639.144 274.21L531.853 271.889C518.495 264.177 489.218 247.274 478.982 241.364" stroke="url(#paint3_linear_397_2)" stroke-width="19.6523"/>
</g>
<g filter="url(#filter4_dddddd_397_2)">
<path d="M456.553 374.538L494.982 371.701C512.905 361.147 544.252 335.541 526.252 317.54C510.833 311.436 476.025 295.256 460.138 279.369" stroke="url(#paint4_linear_397_2)" stroke-width="19.6523"/>
</g>
<g filter="url(#filter5_dddddd_397_2)">
<path d="M187.294 320.637H177.467V330.463H187.294V320.637ZM187.294 38.4834V28.6572H177.467V38.4834H187.294ZM230.107 262.581C224.68 262.581 220.28 266.981 220.28 272.408C220.28 277.834 224.68 282.234 230.107 282.234V272.408V262.581ZM230.107 86.9704V77.1443H220.28V86.9704H230.107ZM187.294 320.637H197.12V38.4834H187.294H177.467V320.637H187.294ZM187.294 38.4834V48.3095H343.329V38.4834V28.6572H187.294V38.4834ZM343.329 38.4834V48.3095C379.907 48.3095 407.388 64.3495 426.075 88.572C444.957 113.046 454.998 146.14 455.366 179.668C455.734 213.2 446.418 246.206 427.789 270.584C409.379 294.675 381.572 310.811 343.329 310.811V320.637V330.463C387.875 330.463 421.386 311.329 443.404 282.516C465.202 253.991 475.423 216.458 475.017 179.452C474.611 142.442 463.568 104.997 441.635 76.5677C419.508 47.8865 386.445 28.6572 343.329 28.6572V38.4834ZM343.329 320.637V310.811H187.294V320.637V330.463H343.329V320.637ZM230.107 272.408V282.234H343.329V272.408V262.581H230.107V272.408ZM343.329 272.408V282.234C373.234 282.234 395.361 269.025 409.47 249.114C423.322 229.567 429.109 204.121 428.258 179.352C427.407 154.562 419.876 129.387 405.799 110.144C391.574 90.6972 370.444 77.1443 343.329 77.1443V86.9704V96.7966C363.1 96.7966 378.729 106.423 389.938 121.746C401.296 137.273 407.876 158.456 408.618 180.026C409.359 201.616 404.222 222.53 393.435 237.752C382.906 252.611 366.682 262.581 343.329 262.581V272.408ZM343.329 86.9704V77.1443H230.107V86.9704V96.7966H343.329V86.9704ZM230.107 86.9704H220.28V247.132H230.107H239.933V86.9704H230.107Z" fill="url(#paint5_linear_397_2)"/>
</g>
<g filter="url(#filter6_dddddd_397_2)">
<path d="M639.671 40.8262C651.182 40.8262 661.309 50.7574 661.309 64.0127C661.309 77.2679 651.182 87.1992 639.671 87.1992C628.159 87.1991 618.032 77.2678 618.032 64.0127C618.032 50.7574 628.159 40.8263 639.671 40.8262Z" stroke="url(#paint6_linear_397_2)" stroke-width="19.6523"/>
</g>
<g filter="url(#filter7_dddddd_397_2)">
<path d="M573.645 144.506C585.156 144.506 595.284 154.438 595.284 167.693C595.283 180.948 585.156 190.879 573.645 190.879C562.133 190.879 552.006 180.948 552.006 167.693C552.006 154.438 562.133 144.506 573.645 144.506Z" stroke="url(#paint7_linear_397_2)" stroke-width="19.6523"/>
</g>
<g filter="url(#filter8_dddddd_397_2)">
<path d="M430.756 351.349C442.268 351.349 452.395 361.28 452.395 374.536C452.395 387.791 442.268 397.722 430.756 397.722C419.245 397.722 409.118 387.791 409.118 374.536C409.118 361.28 419.245 351.349 430.756 351.349Z" stroke="url(#paint8_linear_397_2)" stroke-width="19.6523"/>
</g>
<g filter="url(#filter9_dddddd_397_2)">
<path d="M589.375 363.733C602.823 363.733 613.335 374.327 613.335 386.919C613.335 399.511 602.823 410.106 589.375 410.106C575.926 410.106 565.415 399.511 565.415 386.919C565.415 374.327 575.926 363.733 589.375 363.733Z" stroke="url(#paint9_linear_397_2)" stroke-width="19.6523"/>
</g>
<g filter="url(#filter10_dddddd_397_2)">
<ellipse cx="641.476" cy="210.764" rx="15.2167" ry="15.7325" fill="url(#paint10_linear_397_2)"/>
</g>
<path d="M52.7148 568.936C39.0659 568.936 27.7814 565.765 18.8613 559.424C10.0486 552.976 5.26611 543.572 4.51381 531.213H42.5588C43.0961 537.769 45.9978 541.047 51.264 541.047C53.1984 541.047 54.8105 540.617 56.1002 539.757C57.4973 538.79 58.1959 537.339 58.1959 535.404C58.1959 532.718 56.745 530.568 53.8433 528.956C50.9415 527.237 46.4277 525.302 40.3018 523.153C32.9938 520.573 26.9216 518.048 22.0854 515.576C17.3567 513.104 13.2727 509.504 9.83365 504.775C6.39456 500.046 4.72875 493.974 4.83622 486.559C4.83622 479.143 6.71698 472.856 10.4785 467.697C14.3475 462.431 19.5598 458.455 26.1156 455.768C32.7788 453.081 40.2481 451.738 48.5234 451.738C62.4947 451.738 73.5643 454.962 81.7322 461.41C90.0075 467.859 94.3601 476.94 94.7899 488.654H56.2614C56.1539 485.43 55.3479 483.12 53.8433 481.722C52.3387 480.325 50.5117 479.627 48.3622 479.627C46.8576 479.627 45.6217 480.164 44.6545 481.239C43.6872 482.206 43.2036 483.603 43.2036 485.43C43.2036 488.009 44.6007 490.159 47.395 491.878C50.2967 493.491 54.8643 495.479 61.0976 497.843C68.2982 500.53 74.2091 503.109 78.8304 505.581C83.5592 508.053 87.6431 511.492 91.0822 515.898C94.5213 520.305 96.2408 525.839 96.2408 532.503C96.2408 539.488 94.5213 545.775 91.0822 551.364C87.6431 556.845 82.6457 561.144 76.0899 564.261C69.5341 567.377 61.7424 568.936 52.7148 568.936ZM164.432 568.936C153.684 568.936 143.797 566.41 134.769 561.359C125.849 556.308 118.756 549.322 113.49 540.402C108.224 531.482 105.591 521.433 105.591 510.256C105.591 499.079 108.224 489.03 113.49 480.11C118.756 471.19 125.849 464.258 134.769 459.315C143.797 454.263 153.684 451.738 164.432 451.738C175.179 451.738 185.012 454.263 193.933 459.315C202.853 464.258 209.892 471.19 215.051 480.11C220.317 489.03 222.95 499.079 222.95 510.256C222.95 521.433 220.317 531.482 215.051 540.402C209.892 549.322 202.799 556.308 193.771 561.359C184.851 566.41 175.071 568.936 164.432 568.936ZM164.432 535.566C171.525 535.566 177.006 533.309 180.875 528.795C184.744 524.174 186.678 517.994 186.678 510.256C186.678 502.411 184.744 496.231 180.875 491.717C177.006 487.096 171.525 484.785 164.432 484.785C157.231 484.785 151.696 487.096 147.827 491.717C143.958 496.231 142.024 502.411 142.024 510.256C142.024 517.994 143.958 524.174 147.827 528.795C151.696 533.309 157.231 535.566 164.432 535.566ZM271.648 540.724H306.147V567.807H235.86V453.672H271.648V540.724ZM352.391 453.672V517.994C352.391 523.26 353.519 527.452 355.776 530.568C358.14 533.577 361.902 535.082 367.06 535.082C372.219 535.082 376.034 533.577 378.506 530.568C380.978 527.452 382.214 523.26 382.214 517.994V453.672H417.841V517.994C417.841 528.849 415.584 538.145 411.07 545.883C406.556 553.513 400.377 559.263 392.531 563.132C384.686 567.001 375.927 568.936 366.254 568.936C356.582 568.936 347.984 567.001 340.461 563.132C333.046 559.263 327.242 553.513 323.051 545.883C318.859 538.252 316.764 528.956 316.764 517.994V453.672H352.391ZM522.908 453.672V482.045H492.601V567.807H456.813V482.045H426.828V453.672H522.908ZM568.402 453.672V567.807H532.614V453.672H568.402ZM640.182 568.936C629.435 568.936 619.548 566.41 610.52 561.359C601.6 556.308 594.507 549.322 589.241 540.402C583.975 531.482 581.342 521.433 581.342 510.256C581.342 499.079 583.975 489.03 589.241 480.11C594.507 471.19 601.6 464.258 610.52 459.315C619.548 454.263 629.435 451.738 640.182 451.738C650.929 451.738 660.763 454.263 669.683 459.315C678.603 464.258 685.643 471.19 690.801 480.11C696.068 489.03 698.701 499.079 698.701 510.256C698.701 521.433 696.068 531.482 690.801 540.402C685.643 549.322 678.55 556.308 669.522 561.359C660.602 566.41 650.822 568.936 640.182 568.936ZM640.182 535.566C647.275 535.566 652.756 533.309 656.625 528.795C660.494 524.174 662.429 517.994 662.429 510.256C662.429 502.411 660.494 496.231 656.625 491.717C652.756 487.096 647.275 484.785 640.182 484.785C632.982 484.785 627.447 487.096 623.578 491.717C619.709 496.231 617.774 502.411 617.774 510.256C617.774 517.994 619.709 524.174 623.578 528.795C627.447 533.309 632.982 535.566 640.182 535.566ZM821.071 567.807H785.283L747.399 510.417V567.807H711.611V453.672H747.399L785.283 512.029V453.672H821.071V567.807ZM881.894 568.936C868.245 568.936 856.96 565.765 848.04 559.424C839.228 552.976 834.445 543.572 833.693 531.213H871.738C872.275 537.769 875.177 541.047 880.443 541.047C882.378 541.047 883.99 540.617 885.279 539.757C886.676 538.79 887.375 537.339 887.375 535.404C887.375 532.718 885.924 530.568 883.022 528.956C880.121 527.237 875.607 525.302 869.481 523.153C862.173 520.573 856.101 518.048 851.264 515.576C846.536 513.104 842.452 509.504 839.013 504.775C835.574 500.046 833.908 493.974 834.015 486.559C834.015 479.143 835.896 472.856 839.658 467.697C843.527 462.431 848.739 458.455 855.295 455.768C861.958 453.081 869.427 451.738 877.703 451.738C891.674 451.738 902.743 454.962 910.911 461.41C919.187 467.859 923.539 476.94 923.969 488.654H885.44C885.333 485.43 884.527 483.12 883.022 481.722C881.518 480.325 879.691 479.627 877.541 479.627C876.037 479.627 874.801 480.164 873.834 481.239C872.866 482.206 872.383 483.603 872.383 485.43C872.383 488.009 873.78 490.159 876.574 491.878C879.476 493.491 884.043 495.479 890.277 497.843C897.477 500.53 903.388 503.109 908.009 505.581C912.738 508.053 916.822 511.492 920.261 515.898C923.7 520.305 925.42 525.839 925.42 532.503C925.42 539.488 923.7 545.775 920.261 551.364C916.822 556.845 911.825 561.144 905.269 564.261C898.713 567.377 890.922 568.936 881.894 568.936Z" fill="#5B82AB"/>
<defs>
<filter id="filter0_dddddd_397_2" x="428.417" y="11.6328" width="233.978" height="92.9019" filterUnits="userSpaceOnUse" color-interpolation-filters="sRGB">
<feFlood flood-opacity="0" result="BackgroundImageFix"/>
<feColorMatrix in="SourceAlpha" type="matrix" values="0 0 0 0 0 0 0 0 0 0 0 0 0 0 0 0 0 0 127 0" result="hardAlpha"/>
<feOffset/>
<feGaussianBlur stdDeviation="0.233666"/>
<feColorMatrix type="matrix" values="0 0 0 0 0.356863 0 0 0 0 0.509804 0 0 0 0 0.670588 0 0 0 1 0"/>
<feBlend mode="normal" in2="BackgroundImageFix" result="effect1_dropShadow_397_2"/>
<feColorMatrix in="SourceAlpha" type="matrix" values="0 0 0 0 0 0 0 0 0 0 0 0 0 0 0 0 0 0 127 0" result="hardAlpha"/>
<feOffset/>
<feGaussianBlur stdDeviation="0.467332"/>
<feColorMatrix type="matrix" values="0 0 0 0 0.356863 0 0 0 0 0.509804 0 0 0 0 0.670588 0 0 0 1 0"/>
<feBlend mode="normal" in2="effect1_dropShadow_397_2" result="effect2_dropShadow_397_2"/>
<feColorMatrix in="SourceAlpha" type="matrix" values="0 0 0 0 0 0 0 0 0 0 0 0 0 0 0 0 0 0 127 0" result="hardAlpha"/>
<feOffset/>
<feGaussianBlur stdDeviation="1.63566"/>
<feColorMatrix type="matrix" values="0 0 0 0 0.356863 0 0 0 0 0.509804 0 0 0 0 0.670588 0 0 0 1 0"/>
<feBlend mode="normal" in2="effect2_dropShadow_397_2" result="effect3_dropShadow_397_2"/>
<feColorMatrix in="SourceAlpha" type="matrix" values="0 0 0 0 0 0 0 0 0 0 0 0 0 0 0 0 0 0 127 0" result="hardAlpha"/>
<feOffset/>
<feGaussianBlur stdDeviation="3.27133"/>
<feColorMatrix type="matrix" values="0 0 0 0 0.356863 0 0 0 0 0.509804 0 0 0 0 0.670588 0 0 0 1 0"/>
<feBlend mode="normal" in2="effect3_dropShadow_397_2" result="effect4_dropShadow_397_2"/>
<feColorMatrix in="SourceAlpha" type="matrix" values="0 0 0 0 0 0 0 0 0 0 0 0 0 0 0 0 0 0 127 0" result="hardAlpha"/>
<feOffset/>
<feGaussianBlur stdDeviation="5.60799"/>
<feColorMatrix type="matrix" values="0 0 0 0 0.356863 0 0 0 0 0.509804 0 0 0 0 0.670588 0 0 0 1 0"/>
<feBlend mode="normal" in2="effect4_dropShadow_397_2" result="effect5_dropShadow_397_2"/>
<feColorMatrix in="SourceAlpha" type="matrix" values="0 0 0 0 0 0 0 0 0 0 0 0 0 0 0 0 0 0 127 0" result="hardAlpha"/>
<feOffset/>
<feGaussianBlur stdDeviation="9.81398"/>
<feColorMatrix type="matrix" values="0 0 0 0 0.356863 0 0 0 0 0.509804 0 0 0 0 0.670588 0 0 0 1 0"/>
<feBlend mode="normal" in2="effect5_dropShadow_397_2" result="effect6_dropShadow_397_2"/>
<feBlend mode="normal" in="SourceGraphic" in2="effect6_dropShadow_397_2" result="shape"/>
</filter>
<filter id="filter1_dddddd_397_2" x="458.482" y="60.2668" width="201.438" height="90.2789" filterUnits="userSpaceOnUse" color-interpolation-filters="sRGB">
<feFlood flood-opacity="0" result="BackgroundImageFix"/>
<feColorMatrix in="SourceAlpha" type="matrix" values="0 0 0 0 0 0 0 0 0 0 0 0 0 0 0 0 0 0 127 0" result="hardAlpha"/>
<feOffset/>
<feGaussianBlur stdDeviation="0.20117"/>
<feColorMatrix type="matrix" values="0 0 0 0 0.356863 0 0 0 0 0.509804 0 0 0 0 0.670588 0 0 0 1 0"/>
<feBlend mode="normal" in2="BackgroundImageFix" result="effect1_dropShadow_397_2"/>
<feColorMatrix in="SourceAlpha" type="matrix" values="0 0 0 0 0 0 0 0 0 0 0 0 0 0 0 0 0 0 127 0" result="hardAlpha"/>
<feOffset/>
<feGaussianBlur stdDeviation="0.402339"/>
<feColorMatrix type="matrix" values="0 0 0 0 0.356863 0 0 0 0 0.509804 0 0 0 0 0.670588 0 0 0 1 0"/>
<feBlend mode="normal" in2="effect1_dropShadow_397_2" result="effect2_dropShadow_397_2"/>
<feColorMatrix in="SourceAlpha" type="matrix" values="0 0 0 0 0 0 0 0 0 0 0 0 0 0 0 0 0 0 127 0" result="hardAlpha"/>
<feOffset/>
<feGaussianBlur stdDeviation="1.40819"/>
<feColorMatrix type="matrix" values="0 0 0 0 0.356863 0 0 0 0 0.509804 0 0 0 0 0.670588 0 0 0 1 0"/>
<feBlend mode="normal" in2="effect2_dropShadow_397_2" result="effect3_dropShadow_397_2"/>
<feColorMatrix in="SourceAlpha" type="matrix" values="0 0 0 0 0 0 0 0 0 0 0 0 0 0 0 0 0 0 127 0" result="hardAlpha"/>
<feOffset/>
<feGaussianBlur stdDeviation="2.81637"/>
<feColorMatrix type="matrix" values="0 0 0 0 0.356863 0 0 0 0 0.509804 0 0 0 0 0.670588 0 0 0 1 0"/>
<feBlend mode="normal" in2="effect3_dropShadow_397_2" result="effect4_dropShadow_397_2"/>
<feColorMatrix in="SourceAlpha" type="matrix" values="0 0 0 0 0 0 0 0 0 0 0 0 0 0 0 0 0 0 127 0" result="hardAlpha"/>
<feOffset/>
<feGaussianBlur stdDeviation="4.82807"/>
<feColorMatrix type="matrix" values="0 0 0 0 0.356863 0 0 0 0 0.509804 0 0 0 0 0.670588 0 0 0 1 0"/>
<feBlend mode="normal" in2="effect4_dropShadow_397_2" result="effect5_dropShadow_397_2"/>
<feColorMatrix in="SourceAlpha" type="matrix" values="0 0 0 0 0 0 0 0 0 0 0 0 0 0 0 0 0 0 127 0" result="hardAlpha"/>
<feOffset/>
<feGaussianBlur stdDeviation="8.44912"/>
<feColorMatrix type="matrix" values="0 0 0 0 0.356863 0 0 0 0 0.509804 0 0 0 0 0.670588 0 0 0 1 0"/>
<feBlend mode="normal" in2="effect5_dropShadow_397_2" result="effect6_dropShadow_397_2"/>
<feBlend mode="normal" in="SourceGraphic" in2="effect6_dropShadow_397_2" result="shape"/>
</filter>
<filter id="filter2_dddddd_397_2" x="570.101" y="136.264" width="155.162" height="271.216" filterUnits="userSpaceOnUse" color-interpolation-filters="sRGB">
<feFlood flood-opacity="0" result="BackgroundImageFix"/>
<feColorMatrix in="SourceAlpha" type="matrix" values="0 0 0 0 0 0 0 0 0 0 0 0 0 0 0 0 0 0 127 0" result="hardAlpha"/>
<feOffset/>
<feGaussianBlur stdDeviation="0.254093"/>
<feColorMatrix type="matrix" values="0 0 0 0 0.356863 0 0 0 0 0.509804 0 0 0 0 0.670588 0 0 0 1 0"/>
<feBlend mode="normal" in2="BackgroundImageFix" result="effect1_dropShadow_397_2"/>
<feColorMatrix in="SourceAlpha" type="matrix" values="0 0 0 0 0 0 0 0 0 0 0 0 0 0 0 0 0 0 127 0" result="hardAlpha"/>
<feOffset/>
<feGaussianBlur stdDeviation="0.508185"/>
<feColorMatrix type="matrix" values="0 0 0 0 0.356863 0 0 0 0 0.509804 0 0 0 0 0.670588 0 0 0 1 0"/>
<feBlend mode="normal" in2="effect1_dropShadow_397_2" result="effect2_dropShadow_397_2"/>
<feColorMatrix in="SourceAlpha" type="matrix" values="0 0 0 0 0 0 0 0 0 0 0 0 0 0 0 0 0 0 127 0" result="hardAlpha"/>
<feOffset/>
<feGaussianBlur stdDeviation="1.77865"/>
<feColorMatrix type="matrix" values="0 0 0 0 0.356863 0 0 0 0 0.509804 0 0 0 0 0.670588 0 0 0 1 0"/>
<feBlend mode="normal" in2="effect2_dropShadow_397_2" result="effect3_dropShadow_397_2"/>
<feColorMatrix in="SourceAlpha" type="matrix" values="0 0 0 0 0 0 0 0 0 0 0 0 0 0 0 0 0 0 127 0" result="hardAlpha"/>
<feOffset/>
<feGaussianBlur stdDeviation="3.5573"/>
<feColorMatrix type="matrix" values="0 0 0 0 0.356863 0 0 0 0 0.509804 0 0 0 0 0.670588 0 0 0 1 0"/>
<feBlend mode="normal" in2="effect3_dropShadow_397_2" result="effect4_dropShadow_397_2"/>
<feColorMatrix in="SourceAlpha" type="matrix" values="0 0 0 0 0 0 0 0 0 0 0 0 0 0 0 0 0 0 127 0" result="hardAlpha"/>
<feOffset/>
<feGaussianBlur stdDeviation="6.09823"/>
<feColorMatrix type="matrix" values="0 0 0 0 0.356863 0 0 0 0 0.509804 0 0 0 0 0.670588 0 0 0 1 0"/>
<feBlend mode="normal" in2="effect4_dropShadow_397_2" result="effect5_dropShadow_397_2"/>
<feColorMatrix in="SourceAlpha" type="matrix" values="0 0 0 0 0 0 0 0 0 0 0 0 0 0 0 0 0 0 127 0" result="hardAlpha"/>
<feOffset/>
<feGaussianBlur stdDeviation="10.6719"/>
<feColorMatrix type="matrix" values="0 0 0 0 0.356863 0 0 0 0 0.509804 0 0 0 0 0.670588 0 0 0 1 0"/>
<feBlend mode="normal" in2="effect5_dropShadow_397_2" result="effect6_dropShadow_397_2"/>
<feBlend mode="normal" in="SourceGraphic" in2="effect6_dropShadow_397_2" result="shape"/>
</filter>
<filter id="filter3_dddddd_397_2" x="457.69" y="195.309" width="209.972" height="180.132" filterUnits="userSpaceOnUse" color-interpolation-filters="sRGB">
<feFlood flood-opacity="0" result="BackgroundImageFix"/>
<feColorMatrix in="SourceAlpha" type="matrix" values="0 0 0 0 0 0 0 0 0 0 0 0 0 0 0 0 0 0 127 0" result="hardAlpha"/>
<feOffset/>
<feGaussianBlur stdDeviation="0.19498"/>
<feColorMatrix type="matrix" values="0 0 0 0 0.356863 0 0 0 0 0.509804 0 0 0 0 0.670588 0 0 0 1 0"/>
<feBlend mode="normal" in2="BackgroundImageFix" result="effect1_dropShadow_397_2"/>
<feColorMatrix in="SourceAlpha" type="matrix" values="0 0 0 0 0 0 0 0 0 0 0 0 0 0 0 0 0 0 127 0" result="hardAlpha"/>
<feOffset/>
<feGaussianBlur stdDeviation="0.38996"/>
<feColorMatrix type="matrix" values="0 0 0 0 0.356863 0 0 0 0 0.509804 0 0 0 0 0.670588 0 0 0 1 0"/>
<feBlend mode="normal" in2="effect1_dropShadow_397_2" result="effect2_dropShadow_397_2"/>
<feColorMatrix in="SourceAlpha" type="matrix" values="0 0 0 0 0 0 0 0 0 0 0 0 0 0 0 0 0 0 127 0" result="hardAlpha"/>
<feOffset/>
<feGaussianBlur stdDeviation="1.36486"/>
<feColorMatrix type="matrix" values="0 0 0 0 0.356863 0 0 0 0 0.509804 0 0 0 0 0.670588 0 0 0 1 0"/>
<feBlend mode="normal" in2="effect2_dropShadow_397_2" result="effect3_dropShadow_397_2"/>
<feColorMatrix in="SourceAlpha" type="matrix" values="0 0 0 0 0 0 0 0 0 0 0 0 0 0 0 0 0 0 127 0" result="hardAlpha"/>
<feOffset/>
<feGaussianBlur stdDeviation="2.72972"/>
<feColorMatrix type="matrix" values="0 0 0 0 0.356863 0 0 0 0 0.509804 0 0 0 0 0.670588 0 0 0 1 0"/>
<feBlend mode="normal" in2="effect3_dropShadow_397_2" result="effect4_dropShadow_397_2"/>
<feColorMatrix in="SourceAlpha" type="matrix" values="0 0 0 0 0 0 0 0 0 0 0 0 0 0 0 0 0 0 127 0" result="hardAlpha"/>
<feOffset/>
<feGaussianBlur stdDeviation="4.67952"/>
<feColorMatrix type="matrix" values="0 0 0 0 0.356863 0 0 0 0 0.509804 0 0 0 0 0.670588 0 0 0 1 0"/>
<feBlend mode="normal" in2="effect4_dropShadow_397_2" result="effect5_dropShadow_397_2"/>
<feColorMatrix in="SourceAlpha" type="matrix" values="0 0 0 0 0 0 0 0 0 0 0 0 0 0 0 0 0 0 127 0" result="hardAlpha"/>
<feOffset/>
<feGaussianBlur stdDeviation="8.18915"/>
<feColorMatrix type="matrix" values="0 0 0 0 0.356863 0 0 0 0 0.509804 0 0 0 0 0.670588 0 0 0 1 0"/>
<feBlend mode="normal" in2="effect5_dropShadow_397_2" result="effect6_dropShadow_397_2"/>
<feBlend mode="normal" in="SourceGraphic" in2="effect6_dropShadow_397_2" result="shape"/>
</filter>
<filter id="filter4_dddddd_397_2" x="443.597" y="262.828" width="107.467" height="131.103" filterUnits="userSpaceOnUse" color-interpolation-filters="sRGB">
<feFlood flood-opacity="0" result="BackgroundImageFix"/>
<feColorMatrix in="SourceAlpha" type="matrix" values="0 0 0 0 0 0 0 0 0 0 0 0 0 0 0 0 0 0 127 0" result="hardAlpha"/>
<feOffset/>
<feGaussianBlur stdDeviation="0.114202"/>
<feColorMatrix type="matrix" values="0 0 0 0 0.356863 0 0 0 0 0.509804 0 0 0 0 0.670588 0 0 0 1 0"/>
<feBlend mode="normal" in2="BackgroundImageFix" result="effect1_dropShadow_397_2"/>
<feColorMatrix in="SourceAlpha" type="matrix" values="0 0 0 0 0 0 0 0 0 0 0 0 0 0 0 0 0 0 127 0" result="hardAlpha"/>
<feOffset/>
<feGaussianBlur stdDeviation="0.228405"/>
<feColorMatrix type="matrix" values="0 0 0 0 0.356863 0 0 0 0 0.509804 0 0 0 0 0.670588 0 0 0 1 0"/>
<feBlend mode="normal" in2="effect1_dropShadow_397_2" result="effect2_dropShadow_397_2"/>
<feColorMatrix in="SourceAlpha" type="matrix" values="0 0 0 0 0 0 0 0 0 0 0 0 0 0 0 0 0 0 127 0" result="hardAlpha"/>
<feOffset/>
<feGaussianBlur stdDeviation="0.799417"/>
<feColorMatrix type="matrix" values="0 0 0 0 0.356863 0 0 0 0 0.509804 0 0 0 0 0.670588 0 0 0 1 0"/>
<feBlend mode="normal" in2="effect2_dropShadow_397_2" result="effect3_dropShadow_397_2"/>
<feColorMatrix in="SourceAlpha" type="matrix" values="0 0 0 0 0 0 0 0 0 0 0 0 0 0 0 0 0 0 127 0" result="hardAlpha"/>
<feOffset/>
<feGaussianBlur stdDeviation="1.59883"/>
<feColorMatrix type="matrix" values="0 0 0 0 0.356863 0 0 0 0 0.509804 0 0 0 0 0.670588 0 0 0 1 0"/>
<feBlend mode="normal" in2="effect3_dropShadow_397_2" result="effect4_dropShadow_397_2"/>
<feColorMatrix in="SourceAlpha" type="matrix" values="0 0 0 0 0 0 0 0 0 0 0 0 0 0 0 0 0 0 127 0" result="hardAlpha"/>
<feOffset/>
<feGaussianBlur stdDeviation="2.74086"/>
<feColorMatrix type="matrix" values="0 0 0 0 0.356863 0 0 0 0 0.509804 0 0 0 0 0.670588 0 0 0 1 0"/>
<feBlend mode="normal" in2="effect4_dropShadow_397_2" result="effect5_dropShadow_397_2"/>
<feColorMatrix in="SourceAlpha" type="matrix" values="0 0 0 0 0 0 0 0 0 0 0 0 0 0 0 0 0 0 127 0" result="hardAlpha"/>
<feOffset/>
<feGaussianBlur stdDeviation="4.7965"/>
<feColorMatrix type="matrix" values="0 0 0 0 0.356863 0 0 0 0 0.509804 0 0 0 0 0.670588 0 0 0 1 0"/>
<feBlend mode="normal" in2="effect5_dropShadow_397_2" result="effect6_dropShadow_397_2"/>
<feBlend mode="normal" in="SourceGraphic" in2="effect6_dropShadow_397_2" result="shape"/>
</filter>
<filter id="filter5_dddddd_397_2" x="149.026" y="0.216175" width="354.443" height="358.688" filterUnits="userSpaceOnUse" color-interpolation-filters="sRGB">
<feFlood flood-opacity="0" result="BackgroundImageFix"/>
<feColorMatrix in="SourceAlpha" type="matrix" values="0 0 0 0 0 0 0 0 0 0 0 0 0 0 0 0 0 0 127 0" result="hardAlpha"/>
<feOffset/>
<feGaussianBlur stdDeviation="0.338584"/>
<feColorMatrix type="matrix" values="0 0 0 0 0.356863 0 0 0 0 0.509804 0 0 0 0 0.670588 0 0 0 1 0"/>
<feBlend mode="normal" in2="BackgroundImageFix" result="effect1_dropShadow_397_2"/>
<feColorMatrix in="SourceAlpha" type="matrix" values="0 0 0 0 0 0 0 0 0 0 0 0 0 0 0 0 0 0 127 0" result="hardAlpha"/>
<feOffset/>
<feGaussianBlur stdDeviation="0.677168"/>
<feColorMatrix type="matrix" values="0 0 0 0 0.356863 0 0 0 0 0.509804 0 0 0 0 0.670588 0 0 0 1 0"/>
<feBlend mode="normal" in2="effect1_dropShadow_397_2" result="effect2_dropShadow_397_2"/>
<feColorMatrix in="SourceAlpha" type="matrix" values="0 0 0 0 0 0 0 0 0 0 0 0 0 0 0 0 0 0 127 0" result="hardAlpha"/>
<feOffset/>
<feGaussianBlur stdDeviation="2.37009"/>
<feColorMatrix type="matrix" values="0 0 0 0 0.356863 0 0 0 0 0.509804 0 0 0 0 0.670588 0 0 0 1 0"/>
<feBlend mode="normal" in2="effect2_dropShadow_397_2" result="effect3_dropShadow_397_2"/>
<feColorMatrix in="SourceAlpha" type="matrix" values="0 0 0 0 0 0 0 0 0 0 0 0 0 0 0 0 0 0 127 0" result="hardAlpha"/>
<feOffset/>
<feGaussianBlur stdDeviation="4.74017"/>
<feColorMatrix type="matrix" values="0 0 0 0 0.356863 0 0 0 0 0.509804 0 0 0 0 0.670588 0 0 0 1 0"/>
<feBlend mode="normal" in2="effect3_dropShadow_397_2" result="effect4_dropShadow_397_2"/>
<feColorMatrix in="SourceAlpha" type="matrix" values="0 0 0 0 0 0 0 0 0 0 0 0 0 0 0 0 0 0 127 0" result="hardAlpha"/>
<feOffset/>
<feGaussianBlur stdDeviation="8.12601"/>
<feColorMatrix type="matrix" values="0 0 0 0 0.356863 0 0 0 0 0.509804 0 0 0 0 0.670588 0 0 0 1 0"/>
<feBlend mode="normal" in2="effect4_dropShadow_397_2" result="effect5_dropShadow_397_2"/>
<feColorMatrix in="SourceAlpha" type="matrix" values="0 0 0 0 0 0 0 0 0 0 0 0 0 0 0 0 0 0 127 0" result="hardAlpha"/>
<feOffset/>
<feGaussianBlur stdDeviation="14.2205"/>
<feColorMatrix type="matrix" values="0 0 0 0 0.356863 0 0 0 0 0.509804 0 0 0 0 0.670588 0 0 0 1 0"/>
<feBlend mode="normal" in2="effect5_dropShadow_397_2" result="effect6_dropShadow_397_2"/>
<feBlend mode="normal" in="SourceGraphic" in2="effect6_dropShadow_397_2" result="shape"/>
</filter>
<filter id="filter6_dddddd_397_2" x="601.551" y="24.3447" width="76.2406" height="79.3355" filterUnits="userSpaceOnUse" color-interpolation-filters="sRGB">
<feFlood flood-opacity="0" result="BackgroundImageFix"/>
<feColorMatrix in="SourceAlpha" type="matrix" values="0 0 0 0 0 0 0 0 0 0 0 0 0 0 0 0 0 0 127 0" result="hardAlpha"/>
<feOffset/>
<feGaussianBlur stdDeviation="0.0792299"/>
<feColorMatrix type="matrix" values="0 0 0 0 0.356863 0 0 0 0 0.509804 0 0 0 0 0.670588 0 0 0 1 0"/>
<feBlend mode="normal" in2="BackgroundImageFix" result="effect1_dropShadow_397_2"/>
<feColorMatrix in="SourceAlpha" type="matrix" values="0 0 0 0 0 0 0 0 0 0 0 0 0 0 0 0 0 0 127 0" result="hardAlpha"/>
<feOffset/>
<feGaussianBlur stdDeviation="0.15846"/>
<feColorMatrix type="matrix" values="0 0 0 0 0.356863 0 0 0 0 0.509804 0 0 0 0 0.670588 0 0 0 1 0"/>
<feBlend mode="normal" in2="effect1_dropShadow_397_2" result="effect2_dropShadow_397_2"/>
<feColorMatrix in="SourceAlpha" type="matrix" values="0 0 0 0 0 0 0 0 0 0 0 0 0 0 0 0 0 0 127 0" result="hardAlpha"/>
<feOffset/>
<feGaussianBlur stdDeviation="0.554609"/>
<feColorMatrix type="matrix" values="0 0 0 0 0.356863 0 0 0 0 0.509804 0 0 0 0 0.670588 0 0 0 1 0"/>
<feBlend mode="normal" in2="effect2_dropShadow_397_2" result="effect3_dropShadow_397_2"/>
<feColorMatrix in="SourceAlpha" type="matrix" values="0 0 0 0 0 0 0 0 0 0 0 0 0 0 0 0 0 0 127 0" result="hardAlpha"/>
<feOffset/>
<feGaussianBlur stdDeviation="1.10922"/>
<feColorMatrix type="matrix" values="0 0 0 0 0.356863 0 0 0 0 0.509804 0 0 0 0 0.670588 0 0 0 1 0"/>
<feBlend mode="normal" in2="effect3_dropShadow_397_2" result="effect4_dropShadow_397_2"/>
<feColorMatrix in="SourceAlpha" type="matrix" values="0 0 0 0 0 0 0 0 0 0 0 0 0 0 0 0 0 0 127 0" result="hardAlpha"/>
<feOffset/>
<feGaussianBlur stdDeviation="1.90152"/>
<feColorMatrix type="matrix" values="0 0 0 0 0.356863 0 0 0 0 0.509804 0 0 0 0 0.670588 0 0 0 1 0"/>
<feBlend mode="normal" in2="effect4_dropShadow_397_2" result="effect5_dropShadow_397_2"/>
<feColorMatrix in="SourceAlpha" type="matrix" values="0 0 0 0 0 0 0 0 0 0 0 0 0 0 0 0 0 0 127 0" result="hardAlpha"/>
<feOffset/>
<feGaussianBlur stdDeviation="3.32766"/>
<feColorMatrix type="matrix" values="0 0 0 0 0.356863 0 0 0 0 0.509804 0 0 0 0 0.670588 0 0 0 1 0"/>
<feBlend mode="normal" in2="effect5_dropShadow_397_2" result="effect6_dropShadow_397_2"/>
<feBlend mode="normal" in="SourceGraphic" in2="effect6_dropShadow_397_2" result="shape"/>
</filter>
<filter id="filter7_dddddd_397_2" x="535.525" y="128.025" width="76.2406" height="79.3355" filterUnits="userSpaceOnUse" color-interpolation-filters="sRGB">
<feFlood flood-opacity="0" result="BackgroundImageFix"/>
<feColorMatrix in="SourceAlpha" type="matrix" values="0 0 0 0 0 0 0 0 0 0 0 0 0 0 0 0 0 0 127 0" result="hardAlpha"/>
<feOffset/>
<feGaussianBlur stdDeviation="0.0792299"/>
<feColorMatrix type="matrix" values="0 0 0 0 0.356863 0 0 0 0 0.509804 0 0 0 0 0.670588 0 0 0 1 0"/>
<feBlend mode="normal" in2="BackgroundImageFix" result="effect1_dropShadow_397_2"/>
<feColorMatrix in="SourceAlpha" type="matrix" values="0 0 0 0 0 0 0 0 0 0 0 0 0 0 0 0 0 0 127 0" result="hardAlpha"/>
<feOffset/>
<feGaussianBlur stdDeviation="0.15846"/>
<feColorMatrix type="matrix" values="0 0 0 0 0.356863 0 0 0 0 0.509804 0 0 0 0 0.670588 0 0 0 1 0"/>
<feBlend mode="normal" in2="effect1_dropShadow_397_2" result="effect2_dropShadow_397_2"/>
<feColorMatrix in="SourceAlpha" type="matrix" values="0 0 0 0 0 0 0 0 0 0 0 0 0 0 0 0 0 0 127 0" result="hardAlpha"/>
<feOffset/>
<feGaussianBlur stdDeviation="0.554609"/>
<feColorMatrix type="matrix" values="0 0 0 0 0.356863 0 0 0 0 0.509804 0 0 0 0 0.670588 0 0 0 1 0"/>
<feBlend mode="normal" in2="effect2_dropShadow_397_2" result="effect3_dropShadow_397_2"/>
<feColorMatrix in="SourceAlpha" type="matrix" values="0 0 0 0 0 0 0 0 0 0 0 0 0 0 0 0 0 0 127 0" result="hardAlpha"/>
<feOffset/>
<feGaussianBlur stdDeviation="1.10922"/>
<feColorMatrix type="matrix" values="0 0 0 0 0.356863 0 0 0 0 0.509804 0 0 0 0 0.670588 0 0 0 1 0"/>
<feBlend mode="normal" in2="effect3_dropShadow_397_2" result="effect4_dropShadow_397_2"/>
<feColorMatrix in="SourceAlpha" type="matrix" values="0 0 0 0 0 0 0 0 0 0 0 0 0 0 0 0 0 0 127 0" result="hardAlpha"/>
<feOffset/>
<feGaussianBlur stdDeviation="1.90152"/>
<feColorMatrix type="matrix" values="0 0 0 0 0.356863 0 0 0 0 0.509804 0 0 0 0 0.670588 0 0 0 1 0"/>
<feBlend mode="normal" in2="effect4_dropShadow_397_2" result="effect5_dropShadow_397_2"/>
<feColorMatrix in="SourceAlpha" type="matrix" values="0 0 0 0 0 0 0 0 0 0 0 0 0 0 0 0 0 0 127 0" result="hardAlpha"/>
<feOffset/>
<feGaussianBlur stdDeviation="3.32766"/>
<feColorMatrix type="matrix" values="0 0 0 0 0.356863 0 0 0 0 0.509804 0 0 0 0 0.670588 0 0 0 1 0"/>
<feBlend mode="normal" in2="effect5_dropShadow_397_2" result="effect6_dropShadow_397_2"/>
<feBlend mode="normal" in="SourceGraphic" in2="effect6_dropShadow_397_2" result="shape"/>
</filter>
<filter id="filter8_dddddd_397_2" x="392.636" y="334.868" width="76.2406" height="79.3355" filterUnits="userSpaceOnUse" color-interpolation-filters="sRGB">
<feFlood flood-opacity="0" result="BackgroundImageFix"/>
<feColorMatrix in="SourceAlpha" type="matrix" values="0 0 0 0 0 0 0 0 0 0 0 0 0 0 0 0 0 0 127 0" result="hardAlpha"/>
<feOffset/>
<feGaussianBlur stdDeviation="0.0792299"/>
<feColorMatrix type="matrix" values="0 0 0 0 0.356863 0 0 0 0 0.509804 0 0 0 0 0.670588 0 0 0 1 0"/>
<feBlend mode="normal" in2="BackgroundImageFix" result="effect1_dropShadow_397_2"/>
<feColorMatrix in="SourceAlpha" type="matrix" values="0 0 0 0 0 0 0 0 0 0 0 0 0 0 0 0 0 0 127 0" result="hardAlpha"/>
<feOffset/>
<feGaussianBlur stdDeviation="0.15846"/>
<feColorMatrix type="matrix" values="0 0 0 0 0.356863 0 0 0 0 0.509804 0 0 0 0 0.670588 0 0 0 1 0"/>
<feBlend mode="normal" in2="effect1_dropShadow_397_2" result="effect2_dropShadow_397_2"/>
<feColorMatrix in="SourceAlpha" type="matrix" values="0 0 0 0 0 0 0 0 0 0 0 0 0 0 0 0 0 0 127 0" result="hardAlpha"/>
<feOffset/>
<feGaussianBlur stdDeviation="0.554609"/>
<feColorMatrix type="matrix" values="0 0 0 0 0.356863 0 0 0 0 0.509804 0 0 0 0 0.670588 0 0 0 1 0"/>
<feBlend mode="normal" in2="effect2_dropShadow_397_2" result="effect3_dropShadow_397_2"/>
<feColorMatrix in="SourceAlpha" type="matrix" values="0 0 0 0 0 0 0 0 0 0 0 0 0 0 0 0 0 0 127 0" result="hardAlpha"/>
<feOffset/>
<feGaussianBlur stdDeviation="1.10922"/>
<feColorMatrix type="matrix" values="0 0 0 0 0.356863 0 0 0 0 0.509804 0 0 0 0 0.670588 0 0 0 1 0"/>
<feBlend mode="normal" in2="effect3_dropShadow_397_2" result="effect4_dropShadow_397_2"/>
<feColorMatrix in="SourceAlpha" type="matrix" values="0 0 0 0 0 0 0 0 0 0 0 0 0 0 0 0 0 0 127 0" result="hardAlpha"/>
<feOffset/>
<feGaussianBlur stdDeviation="1.90152"/>
<feColorMatrix type="matrix" values="0 0 0 0 0.356863 0 0 0 0 0.509804 0 0 0 0 0.670588 0 0 0 1 0"/>
<feBlend mode="normal" in2="effect4_dropShadow_397_2" result="effect5_dropShadow_397_2"/>
<feColorMatrix in="SourceAlpha" type="matrix" values="0 0 0 0 0 0 0 0 0 0 0 0 0 0 0 0 0 0 127 0" result="hardAlpha"/>
<feOffset/>
<feGaussianBlur stdDeviation="3.32766"/>
<feColorMatrix type="matrix" values="0 0 0 0 0.356863 0 0 0 0 0.509804 0 0 0 0 0.670588 0 0 0 1 0"/>
<feBlend mode="normal" in2="effect5_dropShadow_397_2" result="effect6_dropShadow_397_2"/>
<feBlend mode="normal" in="SourceGraphic" in2="effect6_dropShadow_397_2" result="shape"/>
</filter>
<filter id="filter9_dddddd_397_2" x="548.777" y="347.095" width="81.195" height="79.6475" filterUnits="userSpaceOnUse" color-interpolation-filters="sRGB">
<feFlood flood-opacity="0" result="BackgroundImageFix"/>
<feColorMatrix in="SourceAlpha" type="matrix" values="0 0 0 0 0 0 0 0 0 0 0 0 0 0 0 0 0 0 127 0" result="hardAlpha"/>
<feOffset/>
<feGaussianBlur stdDeviation="0.0810868"/>
<feColorMatrix type="matrix" values="0 0 0 0 0.356863 0 0 0 0 0.509804 0 0 0 0 0.670588 0 0 0 1 0"/>
<feBlend mode="normal" in2="BackgroundImageFix" result="effect1_dropShadow_397_2"/>
<feColorMatrix in="SourceAlpha" type="matrix" values="0 0 0 0 0 0 0 0 0 0 0 0 0 0 0 0 0 0 127 0" result="hardAlpha"/>
<feOffset/>
<feGaussianBlur stdDeviation="0.162174"/>
<feColorMatrix type="matrix" values="0 0 0 0 0.356863 0 0 0 0 0.509804 0 0 0 0 0.670588 0 0 0 1 0"/>
<feBlend mode="normal" in2="effect1_dropShadow_397_2" result="effect2_dropShadow_397_2"/>
<feColorMatrix in="SourceAlpha" type="matrix" values="0 0 0 0 0 0 0 0 0 0 0 0 0 0 0 0 0 0 127 0" result="hardAlpha"/>
<feOffset/>
<feGaussianBlur stdDeviation="0.567608"/>
<feColorMatrix type="matrix" values="0 0 0 0 0.356863 0 0 0 0 0.509804 0 0 0 0 0.670588 0 0 0 1 0"/>
<feBlend mode="normal" in2="effect2_dropShadow_397_2" result="effect3_dropShadow_397_2"/>
<feColorMatrix in="SourceAlpha" type="matrix" values="0 0 0 0 0 0 0 0 0 0 0 0 0 0 0 0 0 0 127 0" result="hardAlpha"/>
<feOffset/>
<feGaussianBlur stdDeviation="1.13522"/>
<feColorMatrix type="matrix" values="0 0 0 0 0.356863 0 0 0 0 0.509804 0 0 0 0 0.670588 0 0 0 1 0"/>
<feBlend mode="normal" in2="effect3_dropShadow_397_2" result="effect4_dropShadow_397_2"/>
<feColorMatrix in="SourceAlpha" type="matrix" values="0 0 0 0 0 0 0 0 0 0 0 0 0 0 0 0 0 0 127 0" result="hardAlpha"/>
<feOffset/>
<feGaussianBlur stdDeviation="1.94608"/>
<feColorMatrix type="matrix" values="0 0 0 0 0.356863 0 0 0 0 0.509804 0 0 0 0 0.670588 0 0 0 1 0"/>
<feBlend mode="normal" in2="effect4_dropShadow_397_2" result="effect5_dropShadow_397_2"/>
<feColorMatrix in="SourceAlpha" type="matrix" values="0 0 0 0 0 0 0 0 0 0 0 0 0 0 0 0 0 0 127 0" result="hardAlpha"/>
<feOffset/>
<feGaussianBlur stdDeviation="3.40565"/>
<feColorMatrix type="matrix" values="0 0 0 0 0.356863 0 0 0 0 0.509804 0 0 0 0 0.670588 0 0 0 1 0"/>
<feBlend mode="normal" in2="effect5_dropShadow_397_2" result="effect6_dropShadow_397_2"/>
<feBlend mode="normal" in="SourceGraphic" in2="effect6_dropShadow_397_2" result="shape"/>
</filter>
<filter id="filter10_dddddd_397_2" x="623.087" y="191.86" width="36.7767" height="37.8082" filterUnits="userSpaceOnUse" color-interpolation-filters="sRGB">
<feFlood flood-opacity="0" result="BackgroundImageFix"/>
<feColorMatrix in="SourceAlpha" type="matrix" values="0 0 0 0 0 0 0 0 0 0 0 0 0 0 0 0 0 0 127 0" result="hardAlpha"/>
<feOffset/>
<feGaussianBlur stdDeviation="0.037758"/>
<feColorMatrix type="matrix" values="0 0 0 0 0.356863 0 0 0 0 0.509804 0 0 0 0 0.670588 0 0 0 1 0"/>
<feBlend mode="normal" in2="BackgroundImageFix" result="effect1_dropShadow_397_2"/>
<feColorMatrix in="SourceAlpha" type="matrix" values="0 0 0 0 0 0 0 0 0 0 0 0 0 0 0 0 0 0 127 0" result="hardAlpha"/>
<feOffset/>
<feGaussianBlur stdDeviation="0.075516"/>
<feColorMatrix type="matrix" values="0 0 0 0 0.356863 0 0 0 0 0.509804 0 0 0 0 0.670588 0 0 0 1 0"/>
<feBlend mode="normal" in2="effect1_dropShadow_397_2" result="effect2_dropShadow_397_2"/>
<feColorMatrix in="SourceAlpha" type="matrix" values="0 0 0 0 0 0 0 0 0 0 0 0 0 0 0 0 0 0 127 0" result="hardAlpha"/>
<feOffset/>
<feGaussianBlur stdDeviation="0.264306"/>
<feColorMatrix type="matrix" values="0 0 0 0 0.356863 0 0 0 0 0.509804 0 0 0 0 0.670588 0 0 0 1 0"/>
<feBlend mode="normal" in2="effect2_dropShadow_397_2" result="effect3_dropShadow_397_2"/>
<feColorMatrix in="SourceAlpha" type="matrix" values="0 0 0 0 0 0 0 0 0 0 0 0 0 0 0 0 0 0 127 0" result="hardAlpha"/>
<feOffset/>
<feGaussianBlur stdDeviation="0.528612"/>
<feColorMatrix type="matrix" values="0 0 0 0 0.356863 0 0 0 0 0.509804 0 0 0 0 0.670588 0 0 0 1 0"/>
<feBlend mode="normal" in2="effect3_dropShadow_397_2" result="effect4_dropShadow_397_2"/>
<feColorMatrix in="SourceAlpha" type="matrix" values="0 0 0 0 0 0 0 0 0 0 0 0 0 0 0 0 0 0 127 0" result="hardAlpha"/>
<feOffset/>
<feGaussianBlur stdDeviation="0.906192"/>
<feColorMatrix type="matrix" values="0 0 0 0 0.356863 0 0 0 0 0.509804 0 0 0 0 0.670588 0 0 0 1 0"/>
<feBlend mode="normal" in2="effect4_dropShadow_397_2" result="effect5_dropShadow_397_2"/>
<feColorMatrix in="SourceAlpha" type="matrix" values="0 0 0 0 0 0 0 0 0 0 0 0 0 0 0 0 0 0 127 0" result="hardAlpha"/>
<feOffset/>
<feGaussianBlur stdDeviation="1.58584"/>
<feColorMatrix type="matrix" values="0 0 0 0 0.356863 0 0 0 0 0.509804 0 0 0 0 0.670588 0 0 0 1 0"/>
<feBlend mode="normal" in2="effect5_dropShadow_397_2" result="effect6_dropShadow_397_2"/>
<feBlend mode="normal" in="SourceGraphic" in2="effect6_dropShadow_397_2" result="shape"/>
</filter>
<linearGradient id="paint0_linear_397_2" x1="545.406" y1="31.2607" x2="545.406" y2="84.9066" gradientUnits="userSpaceOnUse">
<stop stop-color="#5B82AB"/>
<stop offset="1" stop-color="#DDECFF"/>
</linearGradient>
<linearGradient id="paint1_linear_397_2" x1="559.201" y1="77.165" x2="559.201" y2="133.647" gradientUnits="userSpaceOnUse">
<stop stop-color="#5B82AB"/>
<stop offset="1" stop-color="#DDECFF"/>
</linearGradient>
<linearGradient id="paint2_linear_397_2" x1="753.155" y1="365.766" x2="610.272" y2="355.708" gradientUnits="userSpaceOnUse">
<stop stop-color="#DDECFF"/>
<stop offset="1" stop-color="#5B82AB"/>
</linearGradient>
<linearGradient id="paint3_linear_397_2" x1="656.94" y1="237.071" x2="577.761" y2="342.041" gradientUnits="userSpaceOnUse">
<stop stop-color="#DDECFF"/>
<stop offset="1" stop-color="#5B82AB"/>
</linearGradient>
<linearGradient id="paint4_linear_397_2" x1="494.099" y1="279.369" x2="494.099" y2="374.538" gradientUnits="userSpaceOnUse">
<stop stop-color="#DDECFF"/>
<stop offset="1" stop-color="#5B82AB"/>
</linearGradient>
<linearGradient id="paint5_linear_397_2" x1="187.294" y1="364.997" x2="526.187" y2="53.958" gradientUnits="userSpaceOnUse">
<stop stop-color="#5B82AB"/>
<stop offset="1" stop-color="#DDECFF"/>
</linearGradient>
<linearGradient id="paint6_linear_397_2" x1="639.671" y1="31" x2="639.671" y2="97.0249" gradientUnits="userSpaceOnUse">
<stop stop-color="#5B82AB"/>
<stop offset="1" stop-color="#DDECFF"/>
</linearGradient>
<linearGradient id="paint7_linear_397_2" x1="573.645" y1="134.68" x2="573.645" y2="200.705" gradientUnits="userSpaceOnUse">
<stop stop-color="#5B82AB"/>
<stop offset="1" stop-color="#DDECFF"/>
</linearGradient>
<linearGradient id="paint8_linear_397_2" x1="430.756" y1="341.523" x2="430.756" y2="407.548" gradientUnits="userSpaceOnUse">
<stop stop-color="#5B82AB"/>
<stop offset="1" stop-color="#DDECFF"/>
</linearGradient>
<linearGradient id="paint9_linear_397_2" x1="589.117" y1="361.386" x2="589.375" y2="419.932" gradientUnits="userSpaceOnUse">
<stop stop-color="#5E81AC"/>
<stop offset="1" stop-color="#DDECFF"/>
</linearGradient>
<linearGradient id="paint10_linear_397_2" x1="641.476" y1="195.032" x2="641.218" y2="221.596" gradientUnits="userSpaceOnUse">
<stop stop-color="#6086AE"/>
<stop offset="1" stop-color="#DDECFF"/>
</linearGradient>
</defs>
</svg>
