<svg width="53" height="53" viewBox="0 0 53 53" fill="none" xmlns="http://www.w3.org/2000/svg">
<path fill-rule="evenodd" clip-rule="evenodd" d="M6.50873 1.06269C5.79474 0.373097 4.83846 -0.00848233 3.84586 0.00014311C2.85326 0.00876855 1.90375 0.406908 1.20185 1.10881C0.499947 1.81071 0.101808 2.76022 0.0931822 3.75282C0.0845568 4.74542 0.466136 5.7017 1.15573 6.41569L21.1935 26.4535L1.15573 46.4913C0.79416 46.8405 0.505756 47.2582 0.30735 47.7201C0.108945 48.182 0.00451096 48.6787 0.000142936 49.1814C-0.00422508 49.6841 0.09156 50.1826 0.281909 50.6478C0.472258 51.1131 0.753359 51.5357 1.10881 51.8912C1.46426 52.2466 1.88694 52.5277 2.35219 52.7181C2.81744 52.9084 3.31595 53.0042 3.81861 52.9999C4.32127 52.9955 4.81804 52.8911 5.27991 52.6926C5.74178 52.4942 6.15951 52.2058 6.50873 51.8443L26.5465 31.8065L46.5843 51.8443C47.2983 52.5339 48.2546 52.9154 49.2472 52.9068C50.2398 52.8982 51.1893 52.5001 51.8912 51.7981C52.5931 51.0962 52.9912 50.1467 52.9999 49.1541C53.0085 48.1615 52.6269 47.2053 51.9373 46.4913L31.8995 26.4535L51.9373 6.41569C52.6269 5.7017 53.0085 4.74542 52.9999 3.75282C52.9912 2.76022 52.5931 1.81071 51.8912 1.10881C51.1893 0.406908 50.2398 0.00876855 49.2472 0.00014311C48.2546 -0.00848233 47.2983 0.373097 46.5843 1.06269L26.5465 21.1005L6.50873 1.06269Z" fill="white"/>
</svg>
