<svg width="31" height="41" viewBox="0 0 31 41" fill="none" xmlns="http://www.w3.org/2000/svg">
<path d="M28.5391 16.9439C27.8247 22.7418 23.9282 25.0585 22.2453 26.7402C20.5599 28.4268 20.8617 28.7627 20.9749 31.2363C20.9938 31.5423 20.9482 31.8489 20.8409 32.1371C20.7336 32.4253 20.5669 32.689 20.351 32.9121C20.1351 33.1351 19.8746 33.3127 19.5857 33.4338C19.2967 33.555 18.9853 33.6173 18.6707 33.6167H11.9844C11.67 33.6162 11.359 33.5532 11.0705 33.4317C10.7819 33.3102 10.5217 33.1326 10.3058 32.9099C10.09 32.6871 9.92295 32.4238 9.81495 32.1361C9.70695 31.8484 9.66024 31.5422 9.67767 31.2363C9.67767 28.8093 9.9091 28.2454 8.40984 26.7402C6.49803 24.877 2.00026 22.2466 2.00026 15.0121C1.98878 13.2152 2.3594 11.4354 3.08876 9.78492C3.81813 8.13447 4.89042 6.64917 6.23805 5.42265C7.58567 4.19612 9.17941 3.25496 10.9188 2.65849C12.6582 2.06203 14.5055 1.82319 16.3443 1.95704C18.1831 2.09089 19.9735 2.59452 21.6027 3.43618C23.2318 4.27785 24.6644 5.4393 25.8101 6.84732C26.9558 8.25534 27.7898 9.8794 28.2595 11.6171C28.7292 13.3549 28.8244 15.1686 28.5391 16.9439Z" fill="white" stroke="white" stroke-width="3.5" stroke-linecap="round" stroke-linejoin="round"/>
<path d="M11.2267 33.4816V37.1883C11.2267 38.2008 11.7914 39.0318 12.4861 39.0318H17.5259C18.2255 39.0318 18.7877 38.1983 18.7877 37.1883V33.4816M13.0924 7.64258C11.6429 7.64323 10.253 8.21871 9.2283 9.2425C8.20357 10.2663 7.62793 11.6546 7.62793 13.1021" stroke="white" stroke-width="3.5" stroke-linecap="round" stroke-linejoin="round"/>
<path d="M13.3662 7.64258C11.8808 7.64323 10.4566 8.21871 9.40653 9.2425C8.35647 10.2663 7.7666 11.6546 7.7666 13.1021" stroke="black" stroke-width="3.5" stroke-linecap="round" stroke-linejoin="round"/>
</svg>
