<svg width="49" height="51" viewBox="0 0 49 51" fill="none" xmlns="http://www.w3.org/2000/svg">
<path d="M37.3912 26.8262C36.694 32.6319 32.8914 34.9518 31.2491 36.6358C29.6044 38.3248 29.899 38.6611 30.0094 41.138C30.0279 41.4445 29.9834 41.7515 29.8786 42.0401C29.7739 42.3287 29.6112 42.5928 29.4005 42.8161C29.1899 43.0394 28.9357 43.2172 28.6537 43.3386C28.3717 43.4599 28.0678 43.5222 27.7608 43.5217H21.2358C20.929 43.5212 20.6255 43.4581 20.3439 43.3364C20.0622 43.2147 19.8083 43.0369 19.5977 42.8139C19.387 42.5908 19.224 42.3272 19.1186 42.0391C19.0132 41.7509 18.9677 41.4444 18.9847 41.138C18.9847 38.7077 19.2105 38.1431 17.7474 36.6358C15.8817 34.7701 11.4924 32.1361 11.4924 24.8918C11.4812 23.0924 11.8429 21.3101 12.5547 19.6574C13.2665 18.0048 14.3129 16.5174 15.628 15.2892C16.9431 14.061 18.4984 13.1186 20.1959 12.5213C21.8933 11.924 23.696 11.6849 25.4905 11.8189C27.2849 11.9529 29.0322 12.4573 30.622 13.3001C32.2119 14.1429 33.6099 15.3059 34.728 16.7158C35.8461 18.1258 36.66 19.7521 37.1183 21.4921C37.5767 23.2322 37.6696 25.0484 37.3912 26.8262Z" stroke="black" stroke-width="3.5" stroke-linecap="round" stroke-linejoin="round"/>
<path d="M20.7183 43.3864V47.0982C20.7183 48.112 21.2829 48.9442 21.9776 48.9442H27.0175C27.7171 48.9442 28.2793 48.1096 28.2793 47.0982V43.3864M22.584 17.5122C21.1345 17.5129 19.7446 18.0892 18.7198 19.1144C17.6951 20.1395 17.1195 21.5297 17.1195 22.9792M42.4978 25.3874H47M37.9661 10.6288L41.1599 7.43505M40.421 37.8974L43.6147 41.0887M24.4988 2V5.64055M7.90393 7.4326L11.0756 10.6288M5.44907 41.0887L8.62075 37.8974M6.49975 25.3874H2" stroke="black" stroke-width="3.5" stroke-linecap="round" stroke-linejoin="round"/>
</svg>
