<svg width="62" height="62" viewBox="0 0 62 62" fill="none" xmlns="http://www.w3.org/2000/svg">
<rect x="5" y="5" width="53" height="57" fill="white"/>
<path d="M58.59 0H3.41C2.50561 0 1.63827 0.359267 0.998766 0.998766C0.359267 1.63827 0 2.50561 0 3.41V58.59C0 59.4944 0.359267 60.3617 0.998766 61.0012C1.63827 61.6407 2.50561 62 3.41 62H33.108V37.975H25.048V28.675H33.108V21.7C32.941 20.0624 33.1344 18.4082 33.6744 16.8533C34.2145 15.2983 35.0882 13.8804 36.2342 12.6989C37.3803 11.5174 38.771 10.6009 40.3088 10.0137C41.8465 9.42659 43.4941 9.18298 45.136 9.3C47.5489 9.28334 49.9606 9.40755 52.359 9.672V18.042H47.43C43.524 18.042 42.78 19.902 42.78 22.599V28.582H52.08L50.871 37.882H42.78V62H58.59C59.0378 62 59.4812 61.9118 59.8949 61.7404C60.3087 61.5691 60.6846 61.3179 61.0012 61.0012C61.3179 60.6846 61.5691 60.3087 61.7404 59.8949C61.9118 59.4812 62 59.0378 62 58.59V3.41C62 2.96219 61.9118 2.51877 61.7404 2.10505C61.5691 1.69133 61.3179 1.31541 61.0012 0.998766C60.6846 0.682118 60.3087 0.43094 59.8949 0.259571C59.4812 0.0882025 59.0378 0 58.59 0Z" fill="#3B5998"/>
</svg>
