<svg width="29" height="29" viewBox="0 0 29 29" fill="none" xmlns="http://www.w3.org/2000/svg">
<path d="M4.83301 7.24984C4.83301 6.92937 4.96031 6.62202 5.18692 6.39542C5.41353 6.16881 5.72087 6.0415 6.04134 6.0415H22.958C23.2785 6.0415 23.5858 6.16881 23.8124 6.39542C24.039 6.62202 24.1663 6.92937 24.1663 7.24984C24.1663 7.57031 24.039 7.87765 23.8124 8.10426C23.5858 8.33086 23.2785 8.45817 22.958 8.45817H6.04134C5.72087 8.45817 5.41353 8.33086 5.18692 8.10426C4.96031 7.87765 4.83301 7.57031 4.83301 7.24984ZM4.83301 14.4998C4.83301 14.1794 4.96031 13.872 5.18692 13.6454C5.41353 13.4188 5.72087 13.2915 6.04134 13.2915H22.958C23.2785 13.2915 23.5858 13.4188 23.8124 13.6454C24.039 13.872 24.1663 14.1794 24.1663 14.4998C24.1663 14.8203 24.039 15.1277 23.8124 15.3543C23.5858 15.5809 23.2785 15.7082 22.958 15.7082H6.04134C5.72087 15.7082 5.41353 15.5809 5.18692 15.3543C4.96031 15.1277 4.83301 14.8203 4.83301 14.4998ZM6.04134 20.5415C5.72087 20.5415 5.41353 20.6688 5.18692 20.8954C4.96031 21.122 4.83301 21.4294 4.83301 21.7498C4.83301 22.0703 4.96031 22.3777 5.18692 22.6043C5.41353 22.8309 5.72087 22.9582 6.04134 22.9582H22.958C23.2785 22.9582 23.5858 22.8309 23.8124 22.6043C24.039 22.3777 24.1663 22.0703 24.1663 21.7498C24.1663 21.4294 24.039 21.122 23.8124 20.8954C23.5858 20.6688 23.2785 20.5415 22.958 20.5415H6.04134Z" fill="white"/>
</svg>
