<svg width="136" height="136" viewBox="0 0 136 136" fill="none" xmlns="http://www.w3.org/2000/svg">
<path d="M131.191 46.5867C139.326 38.4523 135.617 28.9513 131.191 24.331L111.668 4.80843C103.468 -3.32597 94.0314 0.383316 89.4109 4.80843L78.3475 15.9363H61.4921C49.1272 15.9363 41.9686 22.4438 38.3242 29.9274L9.42926 58.8208V84.8509L4.80868 89.4062C-3.32614 97.6056 0.383337 107.042 4.80868 111.662L24.3323 131.184C27.8465 134.698 31.6211 136 35.2004 136C39.821 136 44.0511 133.722 46.5891 131.184L64.1604 113.549H87.5236C98.587 113.549 104.184 106.651 106.201 99.8833C113.555 97.931 117.59 92.3345 119.217 86.8682C129.304 84.2652 133.079 74.6992 133.079 67.9964V48.4739H129.239L131.191 46.5867ZM120.063 67.9964C120.063 70.9248 118.826 74.5039 113.555 74.5039H107.047V81.0115C107.047 83.9398 105.811 87.519 100.539 87.519H94.0314V94.0265C94.0314 96.9549 92.795 100.534 87.5236 100.534H58.8239L37.4781 121.879C35.4607 123.766 34.2893 122.66 33.5734 121.944L14.1149 102.551C12.2276 100.534 13.334 99.3627 14.0498 98.6468L22.445 90.1871V64.157L35.4607 51.142V61.4889C35.4607 69.363 40.667 81.0115 54.9843 81.0115C69.3016 81.0115 74.5079 69.363 74.5079 61.4889H120.063V67.9964ZM121.95 37.346L110.887 48.4739H61.4921V61.4889C61.4921 64.4173 60.2557 67.9964 54.9843 67.9964C49.7129 67.9964 48.4764 64.4173 48.4764 61.4889V41.9664C48.4764 38.9729 49.5828 28.9513 61.4921 28.9513H83.684L98.5219 14.1142C100.539 12.227 101.711 13.3333 102.427 14.0491L121.885 33.4415C123.772 35.4588 122.666 36.6302 121.95 37.346Z" fill="white"/>
</svg>
