<svg width="198" height="223" viewBox="0 0 198 223" fill="none" xmlns="http://www.w3.org/2000/svg">
<path d="M67.1117 188.748C65.7348 194.209 65.6444 199.915 66.8477 205.416C24.5873 199.436 0 169.553 0 140.413V132.154C0 125.582 2.60782 119.279 7.24978 114.632C11.8917 109.985 18.1876 107.375 24.7523 107.375H124.141C124.389 113.239 126.237 118.955 129.553 123.894H24.7523C22.5641 123.894 20.4654 124.764 18.9181 126.313C17.3708 127.862 16.5015 129.963 16.5015 132.154V140.413C16.5015 161.112 34.4552 183.363 67.1117 188.748ZM82.5076 0C94.543 0 106.085 4.78613 114.596 13.3055C123.106 21.8248 127.887 33.3796 127.887 45.4278C127.887 57.476 123.106 69.0307 114.596 77.5501C106.085 86.0694 94.543 90.8555 82.5076 90.8555C70.4723 90.8555 58.9299 86.0694 50.4197 77.5501C41.9094 69.0307 37.1284 57.476 37.1284 45.4278C37.1284 33.3796 41.9094 21.8248 50.4197 13.3055C58.9299 4.78613 70.4723 0 82.5076 0ZM82.5076 16.5192C74.8488 16.5192 67.5037 19.5649 62.088 24.9863C56.6724 30.4077 53.63 37.7607 53.63 45.4278C53.63 53.0948 56.6724 60.4478 62.088 65.8692C67.5037 71.2906 74.8488 74.3364 82.5076 74.3364C90.1665 74.3364 97.5116 71.2906 102.927 65.8692C108.343 60.4478 111.385 53.0948 111.385 45.4278C111.385 37.7607 108.343 30.4077 102.927 24.9863C97.5116 19.5649 90.1665 16.5192 82.5076 16.5192ZM141.649 100.453L146.319 88.0638C150.576 76.8307 163.844 71.2803 175.032 76.0544L181.434 78.7965C189.24 82.1334 195.708 88.1794 197.061 96.3069C204.602 141.322 165.576 205.35 120.659 221.688C112.54 224.628 103.762 222.348 96.8145 217.624L91.1049 213.742C88.7608 212.161 86.7872 210.09 85.3202 207.672C83.8532 205.254 82.9278 202.546 82.6077 199.735C82.2877 196.923 82.5807 194.076 83.4665 191.39C84.3524 188.703 85.8099 186.241 87.7386 184.172L96.732 174.145C98.8444 171.816 101.539 170.094 104.539 169.156C107.538 168.218 110.733 168.099 113.795 168.81L134.009 173.6C150.037 163.579 158.629 149.482 159.784 131.311L145.296 117.105C143.132 114.988 141.634 112.283 140.986 109.325C140.338 106.366 140.568 103.282 141.649 100.453Z" fill="#212529"/>
</svg>
