<svg width="138" height="138" viewBox="0 0 138 138" fill="none" xmlns="http://www.w3.org/2000/svg">
<path d="M126.108 99.1335C123.943 97.1324 120.761 96.6403 118.038 96.181C114.265 95.5577 112.822 94.8688 110.624 92.9005C105.933 88.7343 105.933 82.6981 110.624 78.5319L120.564 69.7074C135.785 56.2573 135.785 34.2123 120.564 20.7623C109.344 10.8879 94.287 6 78.639 6C60.3666 6 41.2741 12.6594 26.5446 25.7158C-0.84756 49.9259 -0.84756 89.5872 26.5446 113.797C40.1587 125.837 58.5295 131.84 76.7035 131.971H77.2612C95.4352 131.971 113.347 126.099 126.075 114.781C130.799 110.615 130.008 102.775 126.108 99.1335Z" stroke="#212529" stroke-width="12" stroke-miterlimit="10"/>
<path d="M32.25 63.7374C38.0477 63.7374 42.7477 59.0375 42.7477 53.2398C42.7477 47.4421 38.0477 42.7422 32.25 42.7422C26.4524 42.7422 21.7524 47.4421 21.7524 53.2398C21.7524 59.0375 26.4524 63.7374 32.25 63.7374Z" fill="#212529"/>
<path d="M34.8741 97.5255C40.6717 97.5255 45.3717 92.8255 45.3717 87.0279C45.3717 81.2302 40.6717 76.5303 34.8741 76.5303C29.0764 76.5303 24.3765 81.2302 24.3765 87.0279C24.3765 92.8255 29.0764 97.5255 34.8741 97.5255Z" fill="#212529"/>
<path d="M58.4937 42.7413C64.2914 42.7413 68.9913 38.0414 68.9913 32.2437C68.9913 26.446 64.2914 21.7461 58.4937 21.7461C52.696 21.7461 47.9961 26.446 47.9961 32.2437C47.9961 38.0414 52.696 42.7413 58.4937 42.7413Z" fill="#212529"/>
<path d="M68.992 121.146C77.6885 121.146 84.7384 114.096 84.7384 105.4C84.7384 96.7032 77.6885 89.6533 68.992 89.6533C60.2955 89.6533 53.2456 96.7032 53.2456 105.4C53.2456 114.096 60.2955 121.146 68.992 121.146Z" fill="#212529"/>
<path d="M92.6114 42.7413C98.409 42.7413 103.109 38.0414 103.109 32.2437C103.109 26.446 98.409 21.7461 92.6114 21.7461C86.8137 21.7461 82.1138 26.446 82.1138 32.2437C82.1138 38.0414 86.8137 42.7413 92.6114 42.7413Z" fill="#212529"/>
</svg>
