<svg width="109" height="136" viewBox="0 0 109 136" fill="none" xmlns="http://www.w3.org/2000/svg">
<path d="M13.625 115.965L27.0797 110.532C25.9443 107.249 24.8951 103.91 23.9323 100.514C22.9695 97.1186 22.2019 93.7228 21.6297 90.3271L13.625 95.7603V115.965ZM40.875 108.834H68.125C70.1687 104.306 71.8151 98.7893 73.064 92.283C74.313 85.7768 74.9375 79.1256 74.9375 72.3296C74.9375 61.1236 73.064 50.513 69.3172 40.4978C65.5703 30.4826 60.6312 22.7561 54.5 17.3184C48.3687 22.7516 43.4297 30.478 39.6828 40.4978C35.9359 50.5175 34.0625 61.1281 34.0625 72.3296C34.0625 79.1211 34.687 85.7722 35.9359 92.283C37.1849 98.7938 38.8312 104.311 40.875 108.834ZM54.5 74.8764C50.7531 74.8764 47.5467 73.5475 44.8807 70.8898C42.2148 68.232 40.8795 65.0332 40.875 61.2934C40.8704 57.5535 42.2057 54.357 44.8807 51.7038C47.5558 49.0506 50.7622 47.7194 54.5 47.7104C58.2378 47.7013 61.4465 49.0324 64.126 51.7038C66.8056 54.3751 68.1386 57.5716 68.125 61.2934C68.1114 65.0151 66.7784 68.2139 64.126 70.8898C61.4737 73.5656 58.265 74.8945 54.5 74.8764ZM95.375 115.965V95.7603L87.3703 90.3271C86.8026 93.7228 86.0373 97.1186 85.0745 100.514C84.1116 103.91 83.0602 107.249 81.9203 110.532L95.375 115.965ZM54.5 0C65.7406 8.14981 74.229 18.5069 79.9651 31.0712C85.7012 43.6355 88.567 58.2372 88.5625 74.8764L102.869 84.3845C104.799 85.6296 106.304 87.2709 107.385 89.3084C108.466 91.3458 109.005 93.4965 109 95.7603V136L75.1078 122.417H33.8922L0 136V95.7603C0 93.4965 0.540458 91.3458 1.62137 89.3084C2.70229 87.2709 4.20558 85.6296 6.13125 84.3845L20.4375 74.8764C20.4375 58.2372 23.3056 43.6355 29.0417 31.0712C34.7778 18.5069 43.2639 8.14981 54.5 0Z" fill="#212529"/>
</svg>
