<svg width="106" height="147" viewBox="0 0 106 147" fill="none" xmlns="http://www.w3.org/2000/svg">
<path d="M39.8572 140H66.1429M26.7143 93.45H79.2857M7.00002 53.55C7.00002 41.2042 11.8464 29.364 20.4731 20.6342C29.0998 11.9044 40.8 7 53 7C65.2 7 76.9002 11.9044 85.5269 20.6342C94.1536 29.364 99 41.2042 99 53.55C99.0054 61.0452 97.2146 68.43 93.781 75.0712C90.3474 81.7124 85.3735 87.4119 79.2857 91.6811L75.724 108.745C75.2524 111.89 73.6825 114.76 71.2989 116.834C68.9153 118.909 65.8759 120.049 62.7323 120.05H43.2677C40.1241 120.049 37.0847 118.909 34.7011 116.834C32.3175 114.76 30.7476 111.89 30.276 108.745L26.7143 91.7543C20.6245 87.47 15.6504 81.7571 12.2172 75.104C8.78409 68.451 6.99401 61.0556 7.00002 53.55Z" stroke="#212529" stroke-width="13" stroke-linecap="round" stroke-linejoin="round"/>
</svg>
