<svg width="132" height="132" viewBox="0 0 132 132" fill="none" xmlns="http://www.w3.org/2000/svg">
<path d="M66 125C73.748 125 81.4201 123.474 88.5783 120.509C95.7365 117.544 102.241 113.198 107.719 107.719C113.198 102.241 117.544 95.7365 120.509 88.5783C123.474 81.4201 125 73.748 125 66C125 58.252 123.474 50.5799 120.509 43.4217C117.544 36.2635 113.198 29.7594 107.719 24.2807C102.241 18.802 95.7365 14.4561 88.5783 11.4911C81.4201 8.52608 73.748 7 66 7M66 125C58.252 125 50.5799 123.474 43.4217 120.509C36.2635 117.544 29.7594 113.198 24.2807 107.719C18.802 102.241 14.4561 95.7365 11.4911 88.5783C8.52608 81.4201 7 73.748 7 66C7 58.252 8.52608 50.5799 11.4911 43.4217C14.4561 36.2635 18.802 29.7594 24.2807 24.2807C29.7594 18.802 36.2635 14.4561 43.4217 11.4911C50.5799 8.52608 58.252 7 66 7M66 125C84.0999 125 91.8354 91.1537 91.8354 66C91.8354 40.8463 84.0999 7 66 7M66 125C47.9001 125 40.1646 91.1537 40.1646 66C40.1646 40.8463 47.9001 7 66 7M10.2778 46.3333H121.722M10.2778 85.6667H121.722" stroke="white" stroke-width="13" stroke-linecap="round" stroke-linejoin="round"/>
</svg>
