<svg width="62" height="62" viewBox="0 0 62 62" fill="none" xmlns="http://www.w3.org/2000/svg">
<rect x="5" y="5" width="51" height="51" fill="white"/>
<path d="M55.1111 0C56.9382 0 58.6904 0.725791 59.9823 2.01771C61.2742 3.30963 62 5.06184 62 6.88889V55.1111C62 56.9382 61.2742 58.6904 59.9823 59.9823C58.6904 61.2742 56.9382 62 55.1111 62H6.88889C5.06184 62 3.30963 61.2742 2.01771 59.9823C0.725791 58.6904 0 56.9382 0 55.1111V6.88889C0 5.06184 0.725791 3.30963 2.01771 2.01771C3.30963 0.725791 5.06184 0 6.88889 0H55.1111ZM53.3889 53.3889V35.1333C53.3889 32.1552 52.2058 29.2991 50.1 27.1933C47.9942 25.0875 45.1381 23.9044 42.16 23.9044C39.2322 23.9044 35.8222 25.6956 34.1689 28.3822V24.5589H24.5589V53.3889H34.1689V36.4078C34.1689 33.7556 36.3044 31.5856 38.9567 31.5856C40.2356 31.5856 41.4622 32.0936 42.3665 32.998C43.2708 33.9023 43.7789 35.1288 43.7789 36.4078V53.3889H53.3889ZM13.3644 19.1511C14.8992 19.1511 16.371 18.5414 17.4562 17.4562C18.5414 16.371 19.1511 14.8992 19.1511 13.3644C19.1511 10.1611 16.5678 7.54333 13.3644 7.54333C11.8206 7.54333 10.34 8.15663 9.2483 9.2483C8.15663 10.34 7.54333 11.8206 7.54333 13.3644C7.54333 16.5678 10.1611 19.1511 13.3644 19.1511ZM18.1522 53.3889V24.5589H8.61111V53.3889H18.1522Z" fill="#0E76A8"/>
</svg>
