<svg width="89" height="89" viewBox="0 0 89 89" fill="none" xmlns="http://www.w3.org/2000/svg">
<circle cx="44.5" cy="44.5" r="44.5" fill="white"/>
<path fill-rule="evenodd" clip-rule="evenodd" d="M49.956 18.4885C50.1953 18.9526 50.2557 19.5485 50.374 20.7404C50.5995 22.9923 50.7122 24.1183 51.1852 24.739C51.4799 25.1243 51.8716 25.4249 52.3203 25.6101C52.769 25.7953 53.2588 25.8586 53.74 25.7935C54.51 25.6919 55.39 24.9751 57.1445 23.5416C58.0712 22.7809 58.536 22.4019 59.0337 22.2426C59.6677 22.0403 60.3536 22.0745 60.9642 22.3387C61.4455 22.5474 61.8717 22.9704 62.716 23.8162L65.1745 26.2714C66.0215 27.1172 66.445 27.5401 66.654 28.0207C66.9186 28.6306 66.9528 29.3155 66.7502 29.9486C66.5907 30.4457 66.2113 30.9098 65.4522 31.8353C64.014 33.5902 63.2963 34.4662 63.1918 35.2379C63.1274 35.7182 63.1914 36.207 63.3774 36.6546C63.5633 37.1022 63.8646 37.4927 64.2505 37.7864C64.8692 38.2588 65.9995 38.3714 68.2572 38.5966C69.448 38.7147 70.0448 38.7751 70.5122 39.014C71.102 39.3194 71.5611 39.8276 71.8048 40.4448C72 40.9309 72 41.5296 72 42.727V46.1982C72 47.3956 72 47.9943 71.8075 48.4776C71.5631 49.0968 71.1018 49.6062 70.5095 49.9112C70.0448 50.1501 69.448 50.2105 68.2545 50.3286C65.9995 50.5538 64.872 50.6664 64.2505 51.1388C63.8646 51.4331 63.5636 51.8241 63.3782 52.2723C63.1927 52.7204 63.1293 53.2095 63.1945 53.69C63.299 54.459 64.0168 55.3378 65.4522 57.0899C66.2113 58.0154 66.5907 58.4768 66.7502 58.9766C66.9528 59.6097 66.9186 60.2946 66.654 60.9045C66.445 61.3851 66.0215 61.808 65.1745 62.6538L62.716 65.1062C61.869 65.9548 61.4455 66.3778 60.9642 66.5837C60.3536 66.848 59.6677 66.8821 59.0337 66.6799C58.536 66.5206 58.0712 66.1416 57.1445 65.3836C55.3872 63.9501 54.51 63.2333 53.74 63.1317C53.2588 63.0666 52.769 63.1299 52.3203 63.3151C51.8716 63.5003 51.4799 63.8009 51.1852 64.1862C50.7122 64.8042 50.5995 65.9301 50.374 68.1848C50.2557 69.3767 50.1953 69.9726 49.956 70.4367C49.6513 71.0277 49.1422 71.4883 48.5233 71.733C48.0365 71.9252 47.437 71.9252 46.238 71.9252H42.762C41.563 71.9252 40.9635 71.9252 40.4795 71.733C39.8595 71.4889 39.3494 71.0282 39.044 70.4367C38.8047 69.9726 38.7443 69.3767 38.626 68.1848C38.4005 65.9329 38.2878 64.8069 37.8148 64.1862C37.5203 63.8013 37.1291 63.501 36.6809 63.3158C36.2327 63.1306 35.7435 63.0671 35.2627 63.1317C34.49 63.2333 33.6127 63.9501 31.8555 65.3836C30.9288 66.1443 30.464 66.5233 29.9663 66.6826C29.3323 66.8849 28.6464 66.8507 28.0358 66.5865C27.5545 66.3778 27.1283 65.9548 26.284 65.109L23.8255 62.6538C22.9785 61.808 22.555 61.3851 22.346 60.9045C22.0814 60.2946 22.0472 59.6097 22.2497 58.9766C22.4092 58.4795 22.7888 58.0154 23.5477 57.0899C24.986 55.335 25.7038 54.459 25.8055 53.6873C25.8702 53.2072 25.8066 52.7186 25.6211 52.271C25.4356 51.8235 25.1349 51.4328 24.7495 51.1388C24.1307 50.6664 23.0005 50.5538 20.7428 50.3286C19.552 50.2105 18.9552 50.1501 18.4877 49.9112C17.898 49.6058 17.4389 49.0976 17.1953 48.4804C17 47.9943 17 47.3956 17 46.1982V42.727C17 41.5296 17 40.9309 17.1925 40.4476C17.4369 39.8284 17.8982 39.319 18.4905 39.014C18.9553 38.7751 19.552 38.7147 20.7455 38.5966C23.0005 38.3714 24.1307 38.2588 24.7495 37.7864C25.1354 37.4927 25.4367 37.1022 25.6226 36.6546C25.8086 36.207 25.8726 35.7182 25.8083 35.2379C25.7038 34.4662 24.9833 33.5902 23.5477 31.8326C22.7888 30.9071 22.4092 30.4457 22.2497 29.9459C22.0472 29.3128 22.0814 28.6278 22.346 28.018C22.555 27.5401 22.9785 27.1145 23.8255 26.2686L26.284 23.8162C27.131 22.9704 27.5545 22.5447 28.0358 22.3387C28.6464 22.0745 29.3323 22.0403 29.9663 22.2426C30.464 22.4019 30.9288 22.7809 31.8555 23.5388C33.6127 24.9724 34.49 25.6892 35.26 25.7935C35.7418 25.8588 36.2324 25.7954 36.6817 25.6096C37.1309 25.4239 37.5229 25.1225 37.8175 24.7362C38.285 24.1183 38.4005 22.9923 38.626 20.7377C38.7443 19.5485 38.8047 18.9526 39.044 18.4857C39.3493 17.8958 39.8583 17.4362 40.4767 17.1922C40.9635 17 41.563 17 42.762 17H46.238C47.437 17 48.0365 17 48.5205 17.1922C49.1405 17.4363 49.6506 17.897 49.956 18.4885ZM44.5 55.4476C47.4174 55.4476 50.2153 54.2903 52.2782 52.2302C54.3411 50.1701 55.5 47.376 55.5 44.4626C55.5 41.5492 54.3411 38.7551 52.2782 36.695C50.2153 34.6349 47.4174 33.4776 44.5 33.4776C41.5826 33.4776 38.7847 34.6349 36.7218 36.695C34.6589 38.7551 33.5 41.5492 33.5 44.4626C33.5 47.376 34.6589 50.1701 36.7218 52.2302C38.7847 54.2903 41.5826 55.4476 44.5 55.4476Z" fill="#23293F"/>
</svg>
