<svg width="89" height="89" viewBox="0 0 89 89" fill="none" xmlns="http://www.w3.org/2000/svg">
<circle cx="44.5" cy="44.5" r="44.5" fill="white"/>
<path d="M51.9091 24C57.5028 24 62.8673 26.2095 66.8226 30.1424C70.7779 34.0753 73 39.4095 73 44.9714C73 50.5334 70.7779 55.8676 66.8226 59.8005C62.8673 63.7334 57.5028 65.9429 51.9091 65.9429C46.3154 65.9429 40.9509 63.7334 36.9956 59.8005C33.0403 55.8676 30.8182 50.5334 30.8182 44.9714C30.8182 39.4095 33.0403 34.0753 36.9956 30.1424C40.9509 26.2095 46.3154 24 51.9091 24ZM51.9091 29.2429C47.7138 29.2429 43.6904 30.9 40.7239 33.8497C37.7575 36.7993 36.0909 40.8 36.0909 44.9714C36.0909 49.1429 37.7575 53.1436 40.7239 56.0932C43.6904 59.0429 47.7138 60.7 51.9091 60.7C56.1043 60.7 60.1278 59.0429 63.0942 56.0932C66.0607 53.1436 67.7273 49.1429 67.7273 44.9714C67.7273 40.8 66.0607 36.7993 63.0942 33.8497C60.1278 30.9 56.1043 29.2429 51.9091 29.2429ZM49.2727 34.4857H53.2273V44.3947L59.37 50.5027L56.5755 53.2814L49.2727 46.02V34.4857ZM17.6364 60.7C16.9372 60.7 16.2666 60.4238 15.7722 59.9322C15.2778 59.4406 15 58.7738 15 58.0786C15 57.3834 15.2778 56.7166 15.7722 56.225C16.2666 55.7333 16.9372 55.4572 17.6364 55.4572H27.7336C28.5509 57.3184 29.6055 59.0747 30.8182 60.7H17.6364ZM20.2727 47.5929C19.5735 47.5929 18.903 47.3167 18.4085 46.8251C17.9141 46.3335 17.6364 45.6667 17.6364 44.9714C17.6364 44.2762 17.9141 43.6094 18.4085 43.1178C18.903 42.6262 19.5735 42.35 20.2727 42.35H25.6773L25.5455 44.9714L25.6773 47.5929H20.2727ZM22.9091 34.4857C22.2099 34.4857 21.5393 34.2095 21.0449 33.7179C20.5505 33.2263 20.2727 32.5595 20.2727 31.8643C20.2727 31.169 20.5505 30.5023 21.0449 30.0107C21.5393 29.519 22.2099 29.2429 22.9091 29.2429H30.8182C29.6055 30.8681 28.5509 32.6245 27.7336 34.4857H22.9091Z" fill="#23293F"/>
</svg>
