<svg width="62" height="62" viewBox="0 0 62 62" fill="none" xmlns="http://www.w3.org/2000/svg">
<rect x="9" y="12" width="44" height="35" fill="white"/>
<path d="M31 0C13.888 0 0 13.888 0 31C0 48.112 13.888 62 31 62C48.112 62 62 48.112 62 31C62 13.888 48.112 0 31 0ZM45.384 21.08C44.919 25.978 42.904 37.882 41.881 43.369C41.447 45.694 40.579 46.469 39.773 46.562C37.975 46.717 36.611 45.384 34.875 44.237C32.147 42.439 30.597 41.323 27.962 39.587C24.893 37.572 26.877 36.456 28.644 34.658C29.109 34.193 37.045 26.97 37.2 26.319C37.2215 26.2204 37.2187 26.118 37.1917 26.0208C37.1646 25.9235 37.1143 25.8344 37.045 25.761C36.859 25.606 36.611 25.668 36.394 25.699C36.115 25.761 31.775 28.644 23.312 34.348C22.072 35.185 20.956 35.619 19.964 35.588C18.848 35.557 16.74 34.968 15.159 34.441C13.206 33.821 11.687 33.48 11.811 32.395C11.873 31.837 12.648 31.279 14.105 30.69C23.157 26.753 29.171 24.149 32.178 22.909C40.796 19.313 42.563 18.693 43.741 18.693C43.989 18.693 44.578 18.755 44.95 19.065C45.26 19.313 45.353 19.654 45.384 19.902C45.353 20.088 45.415 20.646 45.384 21.08Z" fill="#24A1DE"/>
</svg>
