<svg width="77" height="76" viewBox="0 0 77 76" fill="none" xmlns="http://www.w3.org/2000/svg">
<path d="M4.49121 1.5H21.8164C22.4445 1.5 22.9931 1.69925 23.5156 2.14551C24.0617 2.61197 24.3177 3.09327 24.3984 3.60938L24.4023 3.63281L24.4062 3.65527L27.1768 18.3818C27.298 19.367 27.2506 20.0918 27.1084 20.6064C26.9643 21.1277 26.7071 21.5654 26.3242 21.9434L26.3184 21.9492L15.9453 32.293L15.1475 33.0889L15.6885 34.0762C17.1593 36.7619 18.9026 39.3505 20.915 41.8428C22.9115 44.3153 25.1069 46.6974 27.5 48.9893V48.9902C29.7532 51.2142 32.1174 53.2784 34.5908 55.1826C37.0703 57.0915 39.6942 58.8354 42.4619 60.4141L43.4502 60.9775L44.2588 60.1787L54.3125 50.2568C54.75 49.8251 55.3618 49.4598 56.2109 49.2012C57.0413 48.9483 57.8254 48.8824 58.5781 48.9814L73.2109 51.9121C73.9246 52.1207 74.4741 52.4744 74.9043 52.9707C75.3285 53.4601 75.5 53.9438 75.5 54.4668V71.5664C75.5 72.4559 75.2164 73.1198 74.6631 73.666C74.1087 74.2132 73.4269 74.4999 72.5088 74.5C63.8188 74.5 55.2186 72.6323 46.6982 68.877C38.176 65.1207 30.4122 59.7898 23.4053 52.8711C16.3982 45.9522 11.0009 38.291 7.19727 29.8867C3.39481 21.4849 1.50289 13.0044 1.5 4.43359C1.5 3.54414 1.78356 2.88015 2.33691 2.33398C2.82213 1.8551 3.40492 1.57606 4.1582 1.51367L4.49121 1.5Z" fill="#FA0000" stroke="white" stroke-width="3"/>
</svg>
