<svg width="62" height="62" viewBox="0 0 62 62" fill="none" xmlns="http://www.w3.org/2000/svg">
<rect width="62" height="62" rx="10" fill="#2B2B2B"/>
<path d="M44.4949 13.1467C42.49 10.892 41.3849 7.99693 41.3852 5H32.3202V40.8222C32.2517 42.7612 31.421 44.5982 30.0035 45.9457C28.5859 47.2931 26.6922 48.0456 24.7219 48.0444C20.5561 48.0444 17.0944 44.6933 17.0944 40.5333C17.0944 35.5644 21.9643 31.8378 26.9809 33.3689V24.24C16.8597 22.9111 8 30.6533 8 40.5333C8 50.1533 16.0969 57 24.6926 57C33.9043 57 41.3852 49.6333 41.3852 40.5333V22.3622C45.0611 24.9618 49.4744 26.3565 54 26.3489V17.4222C54 17.4222 48.4847 17.6822 44.4949 13.1467Z" fill="white"/>
</svg>
