<svg width="62" height="62" viewBox="0 0 62 62" fill="none" xmlns="http://www.w3.org/2000/svg">
<path fill-rule="evenodd" clip-rule="evenodd" d="M45.2323 3.49433C35.8588 1.50189 26.1383 1.50189 16.7648 3.49433L15.7548 3.70681C13.1174 4.26587 10.6949 5.51 8.7571 7.30069C6.81926 9.09138 5.44209 11.3584 4.77891 13.8492C2.40703 22.7527 2.40703 32.0781 4.77891 40.9816C5.41143 43.3571 6.69395 45.5311 8.49614 47.2826C10.2983 49.0342 12.556 50.3009 15.0397 50.9541L16.4251 58.8187C16.4693 59.0684 16.5832 59.3023 16.7547 59.496C16.9263 59.6897 17.1493 59.8361 17.4006 59.92C17.6519 60.0039 17.9223 60.0222 18.1835 59.973C18.4447 59.9238 18.6873 59.8089 18.886 59.6403L27.0226 52.7191C33.1305 53.0697 39.2599 52.6053 45.2323 51.3394L46.2452 51.1269C48.8826 50.5678 51.3051 49.3237 53.2429 47.533C55.1807 45.7423 56.5579 43.4753 57.2211 40.9845C59.593 32.0809 59.593 22.7556 57.2211 13.8521C56.5577 11.3608 55.1801 9.0936 53.2417 7.30288C51.3033 5.51216 48.8802 4.26824 46.2423 3.70965L45.2323 3.49433ZM19.2793 13.6198C18.7256 13.5427 18.1608 13.6487 17.6794 13.9201H17.6377C16.5205 14.5433 15.5134 15.3281 14.6554 16.2517C13.9404 17.0364 13.553 17.8297 13.4517 18.5946C13.3922 19.0479 13.4339 19.5069 13.5739 19.9404L13.6275 19.9687C14.4319 22.2153 15.4807 24.377 16.7618 26.4111C18.4144 29.2678 20.4471 31.9101 22.8098 34.2729L22.8813 34.3692L22.9945 34.4485L23.0631 34.525L23.1465 34.593C25.6401 36.8463 28.4254 38.7884 31.435 40.3725C34.8761 42.1545 36.9646 42.9959 38.2189 43.3472V43.3642C38.5854 43.4719 38.9191 43.5201 39.2557 43.5201C40.3245 43.4472 41.3363 43.034 42.1278 42.3472C43.0961 41.5312 43.9154 40.5708 44.553 39.5028V39.4829C45.1518 38.4064 44.9492 37.3921 44.0852 36.7037C42.3512 35.26 40.4744 33.9792 38.4811 32.879C37.1464 32.1906 35.7908 32.607 35.2426 33.304L34.0717 34.7092C33.4699 35.4061 32.3794 35.3098 32.3794 35.3098L32.3496 35.3268C24.2131 33.3521 22.0412 25.5187 22.0412 25.5187C22.0412 25.5187 21.9399 24.4534 22.6936 23.9095L24.1595 22.7876C24.8626 22.2436 25.3512 20.9574 24.5974 19.6882C23.4432 17.7941 22.0992 16.0104 20.5843 14.362C20.2529 13.975 19.7888 13.7112 19.2734 13.6169M33.0259 10.2144C32.6309 10.2144 32.252 10.3636 31.9726 10.6293C31.6932 10.8949 31.5363 11.2552 31.5363 11.6309C31.5363 12.0066 31.6932 12.3669 31.9726 12.6326C32.252 12.8982 32.6309 13.0475 33.0259 13.0475C36.7948 13.0475 39.9231 14.2175 42.3989 16.4613C43.6711 17.6881 44.6632 19.1414 45.3127 20.7336C45.9652 22.3286 46.2631 24.0313 46.1857 25.7368C46.1774 25.9229 46.2078 26.1086 46.2751 26.2834C46.3424 26.4583 46.4452 26.6188 46.5777 26.7559C46.8454 27.0327 47.2177 27.1971 47.6128 27.2129C48.0078 27.2286 48.3933 27.0945 48.6844 26.84C48.9755 26.5855 49.1484 26.2315 49.165 25.8558C49.2539 23.7581 48.8878 21.6654 48.0894 19.708C47.2874 17.7407 46.0662 15.9524 44.5023 14.4555L44.4725 14.4272C41.4008 11.6366 37.5128 10.2144 33.0259 10.2144ZM32.9247 14.872C32.5296 14.872 32.1507 15.0212 31.8713 15.2869C31.5919 15.5525 31.435 15.9128 31.435 16.2885C31.435 16.6642 31.5919 17.0245 31.8713 17.2902C32.1507 17.5558 32.5296 17.7051 32.9247 17.7051H32.9753C35.6924 17.8892 37.6707 18.7505 39.0561 20.1642C40.4773 21.6204 41.2131 23.4307 41.1565 25.6688C41.1475 26.0445 41.2957 26.4083 41.5686 26.68C41.8416 26.9518 42.2169 27.1093 42.6119 27.118C43.007 27.1266 43.3895 26.9856 43.6753 26.7261C43.9611 26.4666 44.1268 26.1097 44.1359 25.734C44.2074 22.7961 43.2123 20.2605 41.24 18.2377V18.232C39.223 16.1752 36.4552 15.0873 33.1243 14.8748L33.0736 14.8691L32.9247 14.872ZM32.868 19.6174C32.6687 19.6007 32.4678 19.6223 32.2775 19.681C32.0871 19.7397 31.9111 19.8343 31.76 19.9592C31.609 20.084 31.4859 20.2365 31.3982 20.4075C31.3105 20.5786 31.2599 20.7647 31.2495 20.9547C31.239 21.1448 31.269 21.3349 31.3376 21.5137C31.4061 21.6925 31.5119 21.8563 31.6485 21.9954C31.7851 22.1344 31.9498 22.2459 32.1327 22.3231C32.3156 22.4004 32.513 22.4417 32.7131 22.4448C33.9585 22.5071 34.754 22.8641 35.2545 23.3429C35.758 23.8245 36.1334 24.5979 36.2019 25.8077C36.2056 25.9978 36.2496 26.1852 36.3311 26.3588C36.4126 26.5324 36.53 26.6887 36.6764 26.8182C36.8227 26.9477 36.995 27.0479 37.183 27.1128C37.3709 27.1777 37.5707 27.2059 37.7703 27.1959C37.97 27.1858 38.1655 27.1376 38.3451 27.0541C38.5248 26.9707 38.6849 26.8537 38.8161 26.7101C38.9472 26.5666 39.0465 26.3994 39.1082 26.2186C39.17 26.0377 39.1928 25.8469 39.1753 25.6575C39.0799 23.9577 38.5198 22.4561 37.3728 21.3512C36.2198 20.2463 34.6497 19.708 32.868 19.6174Z" fill="#7360F2"/>
</svg>
