<svg width="62" height="62" viewBox="0 0 62 62" fill="none" xmlns="http://www.w3.org/2000/svg">
<rect x="8" y="15" width="39" height="36" fill="white"/>
<path d="M31 0C48.1213 0 62 13.8787 62 31C62 48.1213 48.1213 62 31 62C25.5216 62.0094 20.1394 60.5595 15.407 57.7995L0.0124479 62L4.20364 46.5992C1.44142 41.8652 -0.00955304 36.4808 4.73329e-05 31C4.73329e-05 13.8787 13.8787 0 31 0ZM20.4352 16.43L19.8152 16.4548C19.4144 16.4824 19.0227 16.5877 18.662 16.7648C18.3259 16.9555 18.019 17.1935 17.7506 17.4716C17.3786 17.8219 17.1678 18.1257 16.9415 18.4202C15.7949 19.911 15.1776 21.7413 15.1869 23.622C15.1931 25.141 15.5899 26.6197 16.2099 28.0023C17.4778 30.7985 19.5641 33.759 22.3169 36.5025C22.9803 37.1628 23.6313 37.8262 24.3319 38.4431C27.7526 41.4544 31.8286 43.6262 36.2359 44.7857L37.9967 45.0554C38.5702 45.0864 39.1437 45.043 39.7203 45.0151C40.623 44.9675 41.5043 44.7231 42.3026 44.299C42.7082 44.0892 43.1044 43.8617 43.4899 43.617C43.4899 43.617 43.6212 43.5281 43.8774 43.338C44.2959 43.028 44.5532 42.8079 44.9004 42.4452C45.1608 42.1765 45.3778 41.8644 45.5514 41.509C45.7932 41.0037 46.035 40.0396 46.1342 39.2367C46.2086 38.6229 46.1869 38.2881 46.1776 38.0804C46.1652 37.7487 45.8893 37.4046 45.5886 37.2589L43.7844 36.4498C43.7844 36.4498 41.0874 35.2749 39.4382 34.5247C39.2656 34.4495 39.0807 34.4064 38.8926 34.3976C38.6805 34.3754 38.4661 34.3991 38.2639 34.467C38.0617 34.5349 37.8765 34.6455 37.7208 34.7913C37.7053 34.7851 37.4976 34.9618 35.2563 37.6774C35.1277 37.8502 34.9505 37.9809 34.7473 38.0526C34.5441 38.1244 34.3242 38.1341 34.1155 38.0804C33.9135 38.0265 33.7156 37.9581 33.5234 37.8758C33.139 37.7146 33.0057 37.6526 32.7422 37.541C30.9624 36.7657 29.315 35.7166 27.8597 34.4317C27.4691 34.0907 27.1064 33.7187 26.7344 33.3591C25.5149 32.191 24.4521 30.8697 23.5724 29.4283L23.3895 29.1338C23.2601 28.9347 23.1541 28.7215 23.0733 28.4983C22.9555 28.0426 23.2624 27.6768 23.2624 27.6768C23.2624 27.6768 24.0157 26.8522 24.366 26.4058C24.707 25.9718 24.9953 25.5502 25.1813 25.2495C25.5471 24.6605 25.6618 24.056 25.4696 23.5879C24.6016 21.4675 23.7047 19.3584 22.7788 17.2608C22.5959 16.8454 22.0534 16.5478 21.5605 16.4889C21.3931 16.4682 21.2257 16.4517 21.0583 16.4393C20.6421 16.4154 20.2247 16.4196 19.809 16.4517L20.4352 16.43Z" fill="#25D366"/>
</svg>
